<?xml version="1.0" encoding="utf-8"?>
<!-- Generator: Adobe Illustrator 16.0.0, SVG Export Plug-In . SVG Version: 6.00 Build 0)  -->
<!DOCTYPE svg PUBLIC "-//W3C//DTD SVG 1.1//EN" "http://www.w3.org/Graphics/SVG/1.1/DTD/svg11.dtd">
<svg version="1.1" xmlns="http://www.w3.org/2000/svg" xmlns:xlink="http://www.w3.org/1999/xlink" x="0px" y="0px" width="864px"
	 height="864px" viewBox="0 0 864 864" enable-background="new 0 0 864 864" xml:space="preserve">
<g id="Layer_1">
	<rect x="-15.916" y="-11.952" fill="#759361" stroke="#000000" stroke-miterlimit="10" width="895.18" height="892.771"/>
</g>
<g id="Layer_2">
	
		<image overflow="visible" width="750" height="526" xlink:href="../../../../../Downloads/Desktop/pinwheel.jpg"  transform="matrix(1.4721 0 0 1.4721 -112.8291 -818.271)">
	</image>
</g>
<g id="Layer_16">
	<rect x="208.777" y="335.031" fill="#BE965E" width="5.088" height="382.898"/>
</g>
<g id="Layer_12">
	<path fill="#AF1E3B" d="M204.801,337.576c0,0-62.332,47.067-80.777,37.527c0,0-47.703-3.816-75.053-131.662
		c0,0,88.773,60.563,97.042,67.559c0,0,61.969,15.763,65.785,18.943C211.798,329.943,230.879,345.844,204.801,337.576z"/>
</g>
<g id="Layer_13">
	<path opacity="0.08" d="M141.148,306.828c0,0-15.87,4.516-3.642,23.927c0,0,10.942,25.64,14.165,28.904
		c0,0,34.835-5.146,47.463-9.682l6.161-7.82C205.294,342.157,138.468,316.667,141.148,306.828z"/>
</g>
<g id="Layer_9">
	<path fill="#AF1E3B" d="M213.071,344.572c0,0,4.452,71.873-19.082,94.134c0,0-22.261,23.534-38.163,27.986
		c0,0-52.001,2.763-62.814,5.308c0,0,38-34,67-69C160.013,403,204.167,344.572,213.071,344.572z"/>
</g>
<g id="Layer_10">
	<path opacity="0.08" d="M211.798,345.208c0,0,3.18,52.155-2.544,57.244c0,0-5.725,31.166-17.81,37.526
		c0,0-25.248-16.533-21.432-34.979c0,0,18.888-16.541,25.884-31.806C195.897,373.194,208.618,334.396,211.798,345.208z"/>
</g>
<g id="Layer_11">
	<path fill="#8E1925" d="M213.07,343.3c0,0-31.697,60.884-38.057,64.7c0,0-60.529-27.174-71.979-44.347
		c0,0,56.608-12.085,70.601-19.081c0,0,29.258-10.813,35.619-9.541C209.254,335.031,225.791,329.943,213.07,343.3z"/>
	<path opacity="0.02" fill="#FFFFFF" d="M175.541,347.969c0,0,29.258-10.813,35.618-9.541c0,0,3.957-1.214,6.51-0.893
		c2.646-5.837-8.207-2.5-8.207-2.5c-6.36-1.272-35.619,9.541-35.619,9.541c-13.993,6.996-70.601,19.081-70.601,19.081
		c0.671,1.007,1.563,2.075,2.632,3.191C113.274,365.247,162.607,354.436,175.541,347.969z"/>
</g>
<g id="Layer_3">
	<path fill="#AF1E3B" d="M183.6,249.378c0,0,12.722-35.619,119.577-73.782c0,0-78.87,140.777-89.046,158.586
		C214.13,334.183,152.222,285.845,183.6,249.378z"/>
	<path opacity="0.08" d="M214.13,333.335c0,0-57.668-39.011-27.138-91.59C186.992,241.745,178.512,294.326,214.13,333.335z"/>
	<path fill="#8E1925" d="M215.827,333.335c0,0-51.732-32.226-32.227-83.958c0,0-36.715,39.269-48.587,59.622
		C135.013,309,164.943,353.689,215.827,333.335z"/>
	<path opacity="0.02" fill="#FFFFFF" d="M183.6,249.59c0,0-0.297,0.355-0.828,0.994l-0.025,0.072l0.006-0.007
		c-0.08,0.211-0.149,0.419-0.227,0.631l-0.672,1.901c-15.729,46.717,26.412,76.944,32.416,80.964
		c0.518-0.196,1.034-0.388,1.557-0.597C215.827,333.548,164.095,301.321,183.6,249.59z"/>
</g>
<g id="Layer_6">
	<path fill="#AF1E3B" d="M216.886,337.576c-16.537,0.636,6.997-51.52,50.883-35.619c0,0,24.806,4.134,45.159,45.159
		c0,0,20.036,39.753,27.668,72.19c0,0-38.48-37.208-57.562-49.929C283.035,369.378,233.423,336.939,216.886,337.576z"/>
</g>
<g id="Layer_7">
	<path opacity="0.08" d="M211.162,333.441c0,0,23.533-58.198,71.873-24.488c0,0,13.357,48.975,3.18,62.333
		C286.215,371.286,236.604,339.166,211.162,333.441z"/>
</g>
<g id="Layer_8">
	<path fill="#8E1925" d="M222.611,335.667c0,0,25.441-4.453,36.254,3.18c0,0,24.169,12.085,23.534,30.53
		c0,0-69.965,55.972-89.682,69.328c0,0,22.261-24.169,16.537-60.424c0,0,0.636-25.441,1.908-29.894
		C211.162,348.389,209.254,336.303,222.611,335.667z"/>
	<path opacity="0.02" fill="#FFFFFF" d="M195.804,436.495c5.184-6.717,19.437-28.362,14.723-58.215c0,0,0.636-25.442,1.908-29.895
		c0,0-1.908-12.085,11.449-12.721c0,0,14.95-2.611,26.801-0.393c-11.998-2.591-27.861,0.18-27.861,0.18
		c-13.357,0.636-11.449,12.721-11.449,12.721c-1.272,4.452-1.908,29.894-1.908,29.894c5.725,36.255-16.537,60.424-16.537,60.424
		C193.793,437.906,194.758,437.235,195.804,436.495z"/>
</g>
<g id="Layer_5">
	<path fill="#8E1925" d="M208.618,328.035c0,0-3.498-6.678-5.406-16.219c0,0-3.18-38.799,16.219-46.113
		c0,0,17.809-3.816,24.806,1.908c0,0,32.438,32.438,39.435,41.979c0,0-35.619-18.445-57.244,1.272c0,0-4.77,6.36-6.36,16.219
		c0,0,0.636,8.586-1.272,12.402c0,0-9.541,5.725-12.085-2.544L208.618,328.035z"/>
	<path opacity="0.02" fill="#FFFFFF" d="M282.747,308.597c-3.297-1.632-36.422-17.304-56.955,1.417c0,0-4.77,6.36-6.36,16.219
		c0,0,0.528,7.203-0.851,11.346h0.934c0.998-4.201,0.553-10.285,0.553-10.285c1.59-9.859,6.36-16.219,6.36-16.219
		c21.625-19.717,57.244-1.272,57.244-1.272C283.404,309.438,283.086,309.028,282.747,308.597z"/>
</g>
<g id="Layer_14">
	<circle fill="#FFFFFF" cx="210.844" cy="335.031" r="2.862"/>
	<rect x="448.965" y="335.031" fill="#BE965E" width="5.088" height="382.898"/>
	<path fill="#E0C453" d="M444.989,337.576c0,0-62.333,47.067-80.778,37.527c0,0-47.703-3.816-75.053-131.662
		c0,0,88.773,60.563,97.042,67.559c0,0,61.969,15.763,65.785,18.943C451.985,329.943,471.067,345.844,444.989,337.576z"/>
	<path opacity="0.04" d="M381.336,306.828c0,0-15.87,4.516-3.642,23.927c0,0,10.942,25.64,14.165,28.904
		c0,0,34.835-5.146,47.463-9.682l6.161-7.82C445.482,342.157,378.655,316.667,381.336,306.828z"/>
	<path fill="#E0C453" d="M453.259,344.572c0,0,4.452,71.873-19.081,94.134c0,0-22.262,23.534-38.163,27.986
		c0,0-52.001,2.763-62.814,5.308c0,0,38-34,67-69C400.2,403,444.354,344.572,453.259,344.572z"/>
	<path opacity="0.04" d="M451.985,345.208c0,0,3.181,52.155-2.544,57.244c0,0-5.725,31.166-17.81,37.526
		c0,0-25.248-16.533-21.432-34.979c0,0,18.888-16.541,25.885-31.806C436.085,373.194,448.806,334.396,451.985,345.208z"/>
	<path fill="#D4A52A" d="M453.258,343.3c0,0-31.697,60.884-38.058,64.7c0,0-60.529-27.174-71.979-44.347
		c0,0,56.608-12.085,70.601-19.081c0,0,29.258-10.813,35.619-9.541C449.441,335.031,465.979,329.943,453.258,343.3z"/>
	<path opacity="0.02" fill="#FFFFFF" d="M415.728,347.969c0,0,29.258-10.813,35.619-9.541c0,0,3.956-1.214,6.51-0.893
		c2.646-5.837-8.206-2.5-8.206-2.5c-6.36-1.272-35.619,9.541-35.619,9.541c-13.993,6.996-70.601,19.081-70.601,19.081
		c0.671,1.007,1.563,2.075,2.632,3.191C353.461,365.247,402.794,354.436,415.728,347.969z"/>
	<path fill="#E0C453" d="M423.788,249.378c0,0,12.722-35.619,119.577-73.782c0,0-78.869,140.777-89.046,158.586
		C454.318,334.183,392.41,285.845,423.788,249.378z"/>
	<path opacity="0.04" d="M454.318,333.335c0,0-57.669-39.011-27.139-91.59C427.18,241.745,418.699,294.326,454.318,333.335z"/>
	<path fill="#D4A52A" d="M456.015,333.335c0,0-51.732-32.226-32.227-83.958c0,0-36.715,39.269-48.587,59.622
		C375.2,309,405.13,353.689,456.015,333.335z"/>
	<path opacity="0.02" fill="#FFFFFF" d="M423.788,249.59c0,0-0.297,0.355-0.828,0.994l-0.025,0.072l0.006-0.007
		c-0.08,0.211-0.149,0.419-0.227,0.631l-0.672,1.901c-15.729,46.717,26.412,76.944,32.416,80.964
		c0.519-0.196,1.034-0.388,1.558-0.597C456.015,333.548,404.282,301.321,423.788,249.59z"/>
	<path fill="#E0C453" d="M457.074,337.576c-16.537,0.636,6.996-51.52,50.883-35.619c0,0,24.806,4.134,45.159,45.159
		c0,0,20.036,39.753,27.668,72.19c0,0-38.48-37.208-57.562-49.929C523.223,369.378,473.611,336.939,457.074,337.576z"/>
	<path opacity="0.04" d="M451.35,333.441c0,0,23.533-58.198,71.873-24.488c0,0,13.356,48.975,3.18,62.333
		C526.402,371.286,476.791,339.166,451.35,333.441z"/>
	<path fill="#D4A52A" d="M462.799,335.667c0,0,25.441-4.453,36.254,3.18c0,0,24.17,12.085,23.534,30.53
		c0,0-69.965,55.972-89.683,69.328c0,0,22.262-24.169,16.537-60.424c0,0,0.636-25.441,1.908-29.894
		C451.35,348.389,449.441,336.303,462.799,335.667z"/>
	<path opacity="0.02" fill="#FFFFFF" d="M435.992,436.495c5.184-6.717,19.437-28.362,14.723-58.215c0,0,0.636-25.442,1.908-29.895
		c0,0-1.908-12.085,11.448-12.721c0,0,14.95-2.611,26.801-0.393c-11.997-2.591-27.86,0.18-27.86,0.18
		c-13.357,0.636-11.449,12.721-11.449,12.721c-1.271,4.452-1.908,29.894-1.908,29.894c5.725,36.255-16.537,60.424-16.537,60.424
		C433.98,437.906,434.946,437.235,435.992,436.495z"/>
	<path fill="#D4A52A" d="M448.806,328.035c0,0-3.498-6.678-5.406-16.219c0,0-3.181-38.799,16.219-46.113
		c0,0,17.81-3.816,24.806,1.908c0,0,32.438,32.438,39.435,41.979c0,0-35.618-18.445-57.244,1.272c0,0-4.77,6.36-6.36,16.219
		c0,0,0.637,8.586-1.271,12.402c0,0-9.541,5.725-12.085-2.544L448.806,328.035z"/>
	<path opacity="0.02" fill="#FFFFFF" d="M522.935,308.597c-3.297-1.632-36.423-17.304-56.955,1.417c0,0-4.77,6.36-6.36,16.219
		c0,0,0.528,7.203-0.851,11.346h0.934c0.998-4.201,0.554-10.285,0.554-10.285c1.59-9.859,6.36-16.219,6.36-16.219
		c21.625-19.717,57.243-1.272,57.243-1.272C523.592,309.438,523.273,309.028,522.935,308.597z"/>
	<circle fill="#FFFFFF" cx="451.031" cy="335.031" r="2.862"/>
	<path opacity="0.02" fill="#FDFDFE" d="M524.177,310.226c0,0-22.452-27.432-38.163-40.707c-6.326-5.346-8.586-4.771-13.675-5.088
		c0,0-13.675-0.318-15.265,3.18c0,0,5.725,33.71,16.537,37.526C473.611,305.137,492.692,293.688,524.177,310.226z"/>
	<rect x="689.152" y="335.031" fill="#BE965E" width="5.088" height="382.898"/>
	<path fill="#6A5CA8" d="M685.177,337.576c0,0-62.332,47.067-80.777,37.527c0,0-47.703-3.816-75.054-131.662
		c0,0,88.773,60.563,97.042,67.559c0,0,61.969,15.763,65.785,18.943C692.173,329.943,711.255,345.844,685.177,337.576z"/>
	<path opacity="0.08" d="M621.523,306.828c0,0-15.87,4.516-3.642,23.927c0,0,10.941,25.64,14.164,28.904
		c0,0,34.835-5.146,47.463-9.682l6.161-7.82C685.67,342.157,618.843,316.667,621.523,306.828z"/>
	<path fill="#6A5CA8" d="M693.446,344.572c0,0,4.452,71.873-19.081,94.134c0,0-22.262,23.534-38.163,27.986
		c0,0-52.001,2.763-62.814,5.308c0,0,38-34,67-69C640.388,403,684.542,344.572,693.446,344.572z"/>
	<path opacity="0.08" d="M692.173,345.208c0,0,3.181,52.155-2.544,57.244c0,0-5.725,31.166-17.81,37.526
		c0,0-25.248-16.533-21.432-34.979c0,0,18.888-16.541,25.885-31.806C676.272,373.194,688.993,334.396,692.173,345.208z"/>
	<path fill="#46328E" d="M693.445,343.3c0,0-31.697,60.884-38.058,64.7c0,0-60.529-27.174-71.979-44.347
		c0,0,56.608-12.085,70.602-19.081c0,0,29.258-10.813,35.618-9.541C689.629,335.031,706.166,329.943,693.445,343.3z"/>
	<path opacity="0.02" fill="#FFFFFF" d="M655.916,347.969c0,0,29.258-10.813,35.618-9.541c0,0,3.956-1.214,6.51-0.893
		c2.646-5.837-8.206-2.5-8.206-2.5c-6.36-1.272-35.619,9.541-35.619,9.541c-13.992,6.996-70.601,19.081-70.601,19.081
		c0.672,1.007,1.563,2.075,2.632,3.191C593.649,365.247,642.982,354.436,655.916,347.969z"/>
	<path fill="#6A5CA8" d="M663.976,249.378c0,0,12.722-35.619,119.576-73.782c0,0-78.869,140.777-89.046,158.586
		C694.506,334.183,632.598,285.845,663.976,249.378z"/>
	<path opacity="0.08" d="M694.506,333.335c0,0-57.669-39.011-27.139-91.59C667.367,241.745,658.887,294.326,694.506,333.335z"/>
	<path fill="#46328E" d="M696.202,333.335c0,0-51.732-32.226-32.227-83.958c0,0-36.715,39.269-48.588,59.622
		C615.388,309,645.318,353.689,696.202,333.335z"/>
	<path opacity="0.02" fill="#FFFFFF" d="M663.976,249.59c0,0-0.298,0.355-0.828,0.994l-0.025,0.072l0.006-0.007
		c-0.08,0.211-0.149,0.419-0.228,0.631l-0.672,1.901c-15.729,46.717,26.412,76.944,32.416,80.964
		c0.519-0.196,1.034-0.388,1.558-0.597C696.202,333.548,644.47,301.321,663.976,249.59z"/>
	<path fill="#6A5CA8" d="M697.262,337.576c-16.537,0.636,6.996-51.52,50.883-35.619c0,0,24.806,4.134,45.159,45.159
		c0,0,20.036,39.753,27.668,72.19c0,0-38.48-37.208-57.562-49.929C763.41,369.378,713.799,336.939,697.262,337.576z"/>
	<path opacity="0.08" d="M691.537,333.441c0,0,23.533-58.198,71.873-24.488c0,0,13.356,48.975,3.18,62.333
		C766.59,371.286,716.979,339.166,691.537,333.441z"/>
	<path fill="#46328E" d="M702.986,335.667c0,0,25.441-4.453,36.254,3.18c0,0,24.17,12.085,23.534,30.53
		c0,0-69.965,55.972-89.683,69.328c0,0,22.262-24.169,16.537-60.424c0,0,0.636-25.441,1.908-29.894
		C691.537,348.389,689.629,336.303,702.986,335.667z"/>
	<path opacity="0.02" fill="#FFFFFF" d="M676.18,436.495c5.184-6.717,19.437-28.362,14.723-58.215c0,0,0.636-25.442,1.908-29.895
		c0,0-1.908-12.085,11.448-12.721c0,0,14.95-2.611,26.801-0.393c-11.997-2.591-27.86,0.18-27.86,0.18
		c-13.357,0.636-11.449,12.721-11.449,12.721c-1.271,4.452-1.908,29.894-1.908,29.894c5.725,36.255-16.537,60.424-16.537,60.424
		C674.168,437.906,675.134,437.235,676.18,436.495z"/>
	<path fill="#46328E" d="M688.993,328.035c0,0-3.498-6.678-5.406-16.219c0,0-3.181-38.799,16.219-46.113
		c0,0,17.81-3.816,24.806,1.908c0,0,32.438,32.438,39.435,41.979c0,0-35.618-18.445-57.244,1.272c0,0-4.77,6.36-6.36,16.219
		c0,0,0.637,8.586-1.271,12.402c0,0-9.541,5.725-12.085-2.544L688.993,328.035z"/>
	<path opacity="0.02" fill="#FFFFFF" d="M763.122,308.597c-3.297-1.632-36.423-17.304-56.955,1.417c0,0-4.77,6.36-6.36,16.219
		c0,0,0.528,7.203-0.851,11.346h0.934c0.998-4.201,0.554-10.285,0.554-10.285c1.59-9.859,6.36-16.219,6.36-16.219
		c21.625-19.717,57.243-1.272,57.243-1.272C763.779,309.438,763.461,309.028,763.122,308.597z"/>
	<circle fill="#FFFFFF" cx="691.219" cy="335.031" r="2.862"/>
	<path opacity="0.02" fill="#FDFDFE" d="M764.364,310.226c0,0-22.452-27.432-38.163-40.707c-6.326-5.346-8.586-4.771-13.675-5.088
		c0,0-13.675-0.318-15.265,3.18c0,0,5.725,33.71,16.537,37.526C713.799,305.137,732.88,293.688,764.364,310.226z"/>
</g>
<g id="Layer_15">
	<path opacity="0.02" fill="#FDFDFE" d="M283.989,310.226c0,0-22.452-27.432-38.163-40.707c-6.327-5.346-8.586-4.771-13.675-5.088
		c0,0-13.675-0.318-15.265,3.18c0,0,5.725,33.71,16.537,37.526C233.423,305.137,252.505,293.688,283.989,310.226z"/>
</g>
</svg>
