<?xml version="1.0" encoding="utf-8"?>
<!-- Generator: Adobe Illustrator 16.0.0, SVG Export Plug-In . SVG Version: 6.00 Build 0)  -->
<!DOCTYPE svg PUBLIC "-//W3C//DTD SVG 1.1//EN" "http://www.w3.org/Graphics/SVG/1.1/DTD/svg11.dtd">
<svg version="1.1" xmlns="http://www.w3.org/2000/svg" xmlns:xlink="http://www.w3.org/1999/xlink" x="0px" y="0px" width="864px"
	 height="864px" viewBox="0 0 864 864" enable-background="new 0 0 864 864" xml:space="preserve">
<g id="Layer_2">
	<rect x="-19" y="-13" fill="#9E4D2D" width="914" height="898"/>
</g>
<g id="Layer_1" display="none">
	
		<image display="inline" overflow="visible" width="1000" height="1000" xlink:href="AFBBF48.jpg"  transform="matrix(0.8359 0 0 0.8359 15.0405 15.4097)">
	</image>
</g>
<g id="Layer_5">
	<path fill="#0B0B0B" d="M489.363,748.344l-49.99,1.754l-49.99-1.754c0,0,10.613,19.457,15.919,24.765l33.646,0.862v0.021
		l0.425-0.012l0.425,0.012v-0.021l33.646-0.862C478.75,767.801,489.363,748.344,489.363,748.344z"/>
	<path fill="#9B9A9A" d="M353.121,608.604c0,0,76.503,7.518,163.176-0.442c0,0-3.979,8.402-3.979,14.594
		c0,0,0.885,7.075-0.885,12.382c0,0-8.844,7.959,0,16.804c0,0,3.538,4.423-3.537,9.729c0,0-4.422,7.96,2.653,8.845
		c0,0,6.19,9.286-1.326,11.055c0,0-4.865,5.307,0,10.613c0,0,9.728,5.749,1.326,10.613c0,0-5.308,4.864-0.884,11.939
		c0,0,7.074,0.442,0.884,8.845c0,0-7.96,8.844-11.056,15.035c0,0-6.633,9.288-13.267,10.614c0,0-82.693,2.21-96.844-0.886
		c0,0-13.267-6.19-18.131-15.035c0,0-2.654-3.096-6.634-6.19c0,0-2.211-1.327,2.211-4.865c0,0-1.327-6.19-5.307-9.286
		c0,0-1.769-7.075,4.422-10.171c0,0,6.19-3.538-2.653-10.613c0,0-3.096-3.538,0.442-7.96c0,0,6.633-3.979-0.442-11.497
		c0,0-6.191-5.748,0.884-11.939c0,0,4.422-7.076-3.98-12.824c0,0-0.884-23.438-0.884-26.975c0-3.538,0,3.537,0,3.537
		S355.774,609.932,353.121,608.604z"/>
	<path fill="#AFAFB0" d="M366.387,730.066c0,0,94.929,6.484,137.381-1.18c0,0,8.844-4.717,9.434-11.203c0,0,0-5.307-11.202-2.948
		c0,0-71.345,8.256-83.136,7.666c0,0-43.042,2.947-54.834,2.358C364.03,724.76,363.439,730.656,366.387,730.066z"/>
	<path fill="#AFAFB0" d="M509.075,690.267c0,0,10.024,8.845,0,12.382c0,0-103.773,17.098-144.457,12.971
		c0,0-7.664-7.664-0.588-11.792C364.03,703.827,400.585,712.082,509.075,690.267z"/>
	<path fill="#AFAFB0" d="M509.075,669.336c0,0,8.844,7.664-0.59,11.791c0,0-44.812,12.383-140.918,14.151
		c0,0-10.613-5.011-1.769-12.676C365.798,682.603,455.42,684.076,509.075,669.336z"/>
	<path fill="#AFAFB0" d="M509.075,649.288c0,0,6.485,5.897,1.179,10.024c0,0-87.852,14.74-146.814,14.151
		c0,0-4.127-5.897-1.769-10.024C361.67,663.439,467.803,659.312,509.075,649.288z"/>
	<path fill="#AFAFB0" d="M511.433,634.548c0,0-1.178,5.896-5.895,5.896c0,0-116.745,5.307-141.508,12.382
		c0,0-4.128-2.358-4.128-31.839c0,0-1.769-11.793-5.307-11.793c0,0,119.102,6.485,160.965,0.591c0,0-2.947,7.664-2.947,10.613
		C512.613,620.398,513.79,631.601,511.433,634.548z"/>
	<path fill="#DFE3E7" d="M610.491,300.825c0,97.203-124.908,191.613-176.001,176c-63.68-19.457-176-78.798-176-176
		s78.798-176,176-176C531.692,124.824,610.491,203.622,610.491,300.825z"/>
	<path opacity="0.01" fill="#070707" d="M434.49,123.055c-97.202,0-176,78.798-176,176c0,97.203,112.32,156.544,176,176.001
		c51.093,15.611,176.001-78.798,176.001-176.001C610.491,201.853,531.692,123.055,434.49,123.055z M435.373,474.319
		c-58.24-17.795-160.965-72.066-160.965-160.965s72.067-160.965,160.965-160.965c88.899,0,160.965,72.066,160.965,160.965
		S482.101,488.598,435.373,474.319z"/>
	<g opacity="0.05">
		<path fill="#707071" d="M418.259,612.595c-38.815-0.556-64.785-3.106-64.785-3.106c2.653,1.327,6.191,15.92,6.191,15.92
			s0-2.206,0-3.538c0,3.538,0.885,26.976,0.885,26.976c8.402,5.749,3.979,12.823,3.979,12.823c-7.075,6.191-0.884,11.94-0.884,11.94
			c7.075,7.517,0.442,11.498,0.442,11.498c-3.538,4.422-0.442,7.959-0.442,7.959c8.844,7.076,2.653,10.613,2.653,10.613
			c-6.191,3.095-4.422,10.171-4.422,10.171c3.98,3.096,5.306,9.287,5.306,9.287c-4.422,3.537-2.211,4.863-2.211,4.863
			c3.98,3.096,6.633,6.191,6.633,6.191c4.864,8.844,18.13,15.035,18.13,15.035c4.398,0.962,15.421,1.411,28.523,1.575V612.595z"/>
		<path fill="#707071" d="M510.902,703.68c8.401-4.864-1.327-10.613-1.327-10.613c-4.864-5.307,0-10.613,0-10.613
			c7.518-1.769,1.327-11.055,1.327-11.055c-7.076-0.885-2.654-8.844-2.654-8.844c7.076-5.308,3.538-9.729,3.538-9.729
			c-8.844-8.844,0-16.804,0-16.804c1.77-5.307,0.885-12.383,0.885-12.383c0-6.19,3.979-14.593,3.979-14.593
			c-22.689,2.083-44.679,3.106-64.783,3.481v138.225c18.943-0.217,34.713-0.638,34.713-0.638
			c6.633-1.327,13.267-10.615,13.267-10.615c3.096-6.191,11.056-15.035,11.056-15.035c6.19-8.402-0.885-8.845-0.885-8.845
			C505.595,708.544,510.902,703.68,510.902,703.68z"/>
	</g>
	<rect x="418.26" y="611.257" opacity="0.08" fill="#A09F9F" width="33.608" height="137.971"/>
	<g>
		<path fill="#EAEAEA" d="M528.526,587.841c-56.993,8.963-95.412,6.638-95.412,6.638l0.017,0.272
			c-9.804,0.3-44.624,0.644-92.587-7.061c0,0-4.596,2.029,0.258,12.055c0,0,8.813,4.942,8.595,8.475c0,0,49.583,9.082,85.229,7.609
			l0.009-0.147c35.62,1.531,84.964-7.34,84.964-7.34c-0.205-3.531,8.626-8.444,8.626-8.444
			C533.113,589.886,528.526,587.841,528.526,587.841z"/>
		<path fill="#FFFFFF" d="M588.38,372.463H437.05h-5.213h-151.33c0,0-6.191-0.884,4.422,12.382c0,0,41.568,86.673,45.106,125.588
			c0,0,10.613,75.176,8.844,78.714c0,0,81.203,10.348,95.564,6.119c14.361,4.229,95.564-6.119,95.564-6.119
			c-1.77-3.538,8.844-78.714,8.844-78.714c3.538-38.915,45.106-125.588,45.106-125.588
			C594.571,371.579,588.38,372.463,588.38,372.463z"/>
		<path fill="#EAEAEA" d="M281.394,375.115h151.329h5.214h151.329c0,0,0.701-0.098,1.227,0.275c1.775-4.237-1.228-3.813-1.228-3.813
			H437.936h-5.215H281.392c0,0-3.004-0.424-1.227,3.814C280.69,375.017,281.394,375.115,281.394,375.115z"/>
	</g>
	<g opacity="0.01">
		<path fill="#2D2D2D" d="M377.576,611.152c-14.643-0.822-23.216-1.664-23.216-1.664c2.653,1.327,6.191,15.92,6.191,15.92
			s0-2.206,0-3.538c0,3.538,0.884,26.976,0.884,26.976c8.402,5.749,3.98,12.823,3.98,12.823c-7.075,6.191-0.884,11.94-0.884,11.94
			c7.076,7.517,0.442,11.498,0.442,11.498c-3.538,4.422-0.442,7.959-0.442,7.959c8.844,7.076,2.653,10.613,2.653,10.613
			c-6.191,3.095-4.422,10.171-4.422,10.171c3.979,3.096,5.307,9.287,5.307,9.287c-4.423,3.537-2.211,4.863-2.211,4.863
			c3.979,3.096,6.633,6.191,6.633,6.191c1.257,2.287,3.079,4.395,5.085,6.265V611.152z"/>
		<path fill="#2D2D2D" d="M511.787,703.68c8.402-4.864-1.326-10.613-1.326-10.613c-4.865-5.307,0-10.613,0-10.613
			c7.518-1.769,1.326-11.055,1.326-11.055c-7.075-0.885-2.653-8.844-2.653-8.844c7.075-5.308,3.538-9.729,3.538-9.729
			c-8.845-8.844,0-16.804,0-16.804c1.769-5.307,0.884-12.383,0.884-12.383c0-6.19,3.979-14.593,3.979-14.593
			c-7.838,0.721-15.593,1.312-23.215,1.795v135.546c3.693-3.086,6.411-6.888,6.411-6.888c3.096-6.191,11.056-15.035,11.056-15.035
			c6.191-8.402-0.884-8.845-0.884-8.845C506.48,708.544,511.787,703.68,511.787,703.68z"/>
	</g>
	<path opacity="0.4" fill="#FFFFFF" d="M324.642,237.195c0,0-0.135-45.556,26.402-2.768c0,0-26.533,30.896-8.031,119.463
		C343.013,353.891,318.519,307.212,324.642,237.195z"/>
</g>
</svg>
