<?xml version="1.0" encoding="utf-8"?>
<!-- Generator: Adobe Illustrator 16.0.0, SVG Export Plug-In . SVG Version: 6.00 Build 0)  -->
<!DOCTYPE svg PUBLIC "-//W3C//DTD SVG 1.1//EN" "http://www.w3.org/Graphics/SVG/1.1/DTD/svg11.dtd">
<svg version="1.1" xmlns="http://www.w3.org/2000/svg" xmlns:xlink="http://www.w3.org/1999/xlink" x="0px" y="0px" width="864px"
	 height="864px" viewBox="0 0 864 864" enable-background="new 0 0 864 864" xml:space="preserve">
<g id="Background_Color">
	<rect x="-15.434" y="-9.542" fill="#A1C6C1" width="908.434" height="887.952"/>
</g>
<g id="Back_Casing">
</g>
<g id="Layer_17">
</g>
<g id="Layer_15">
</g>
<g id="Front_Casing_1">
</g>
<g id="B">
</g>
<g id="Detail_piece_1">
</g>
<g id="Front_Casing_2">
</g>
<g id="Layer_14">
</g>
<g id="Outer_Lense">
</g>
<g id="Lense">
</g>
<g id="Layer_16">
</g>
<g id="Dial">
</g>
<g id="Flash">
</g>
<g id="Snap">
	<g>
		<path fill="#202024" d="M192.972,601.883c0,0-1.883,16.945,26.361,16.005c0,0,69.672,4.55,77.204-1.101l332.35-0.159
			c0,0,32.01-4.389,37.66-14.745c0,0,10.357-217.488,0-232.552c0,0-5.648-31.068-31.068-37.66c0,0-39.545-13.181-46.135-23.537
			c0,0-23.537-48.017-28.246-54.607c0,0-54.398-33.877-128.043-3.766c0,0-23.255,39.438-32.011,58.373l-86.618,9.415
			c0,0-49.598-2.001-65.603,0.823c0,0-11.201,16.15-20.074,16.123c0,0-27.303,16.947-31.069,38.602
			C197.679,373.097,182.615,518.089,192.972,601.883z"/>
		<path fill="#2D2D2D" d="M338.297,316.158l62.746-8.024l32.011-58.373c0,0,66.008-31.125,128.043,3.766
			c0,0,24.932,46.974,28.246,54.607c0,0,18.162,11.541,19.725,14.667s0,0,0,0s32.82,5.47,42.98,17.191c10.158,11.722,0,0,0,0
			s16.41,17.192,16.41,34.384c0,0-311.016-83.614-320.14-0.337c-4.061,37.059,0,0,0,0l-15.102-13.729L338.297,316.158"/>
		<path fill="#232326" d="M426.21,304.827l-26.57,20.317l-69.548,20.318c0,0-3.399,28.132,18.754,28.132
			c40.635,0,51.778-29.127,56.264-32.821l21.88-9.377L426.21,304.827z"/>
		<path fill="#232326" d="M565.303,304.827l26.57,20.317l53.143,23.443c0,0,29.188,25.788,7.033,25.788
			c-40.637,0-61.162-29.908-65.646-33.603l-21.881-9.377L565.303,304.827z"/>
		<path fill="#30302F" d="M344.553,596.233c0,0-41.551-184.607,3.767-222.194l-16.665-15.292c0,0-113.435,23.161-134.148,15.629
			c0,0-16.15,193.539-3.907,233.653c0,0,6.958,8.541,22.922,10.419c26.569,3.126,61.995,5.73,79.708-1.563
			c26.646-10.973,23.909-9.905,38.031-11.982C334.26,604.903,345.721,602.819,344.553,596.233z"/>
		<path fill="#2D2D2D" d="M338.297,316.158c0,0-0.391,26.179-5.08,44.152c0,0-78.846,22.734-90.568,31.33
			c0,0-42.277-5.282-45.403-9.189c0,0-3.386-34.645,39.593-52.097c0,0,9.117-13.545,17.452-13.806
			C254.292,316.549,334.39,313.032,338.297,316.158z"/>
		<path fill="#2D2D2D" d="M654.393,403.29c0,0,2.346-49.231-17.973-53.139c0,0-33.604-21.099-37.51-21.099l-6.252-15.63
			c0,0,16.41,10.159,22.662,10.159c0,0,45.324,9.378,48.449,36.729c0,0,7.033,30.476,6.252,46.105L654.393,403.29z"/>
		<path fill="#30302F" d="M614.229,574.766c0,0-20.713,28.245,4.707,28.245c0,0,44.25,2.825,45.193-4.707
			c0.941-7.532,18.83-140.284,6.59-198.657c0,0-43.311-4.708-43.311-0.941L614.229,574.766z"/>
		<path fill="#232326" d="M419.959,337.648c0,0,4.688-28.326,6.252-36.588c0,0-1.563-14.162,23.443-14.162h93.773
			c0,0,21.1-2.36,23.443,12.982l7.033,37.768H419.959z"/>
		<circle fill="#131315" cx="496.483" cy="469.58" r="158.171"/>
		<circle fill="#171719" cx="496.484" cy="469.58" r="140.284"/>
		<g>
			<path fill="#17181B" d="M495.543,369.63c-54.338,0-98.388,44.051-98.388,98.386c0,54.339,44.05,98.389,98.388,98.389
				c54.336,0,98.387-44.05,98.387-98.389C593.93,413.681,549.879,369.63,495.543,369.63z M495.543,556.471
				c-48.852,0-88.454-39.602-88.454-88.455c0-48.851,39.603-88.452,88.454-88.452s88.453,39.602,88.453,88.452
				C583.996,516.869,544.395,556.471,495.543,556.471z"/>
			<path fill="#2B3434" d="M495.543,379.045c-49.138,0-88.973,39.836-88.973,88.971c0,49.14,39.835,88.974,88.973,88.974
				c49.137,0,88.971-39.834,88.971-88.974C584.514,418.881,544.68,379.045,495.543,379.045z M495.543,543.668
				c-41.779,0-75.65-33.87-75.65-75.652c0-41.779,33.871-75.649,75.65-75.649c41.781,0,75.65,33.87,75.65,75.649
				C571.193,509.798,537.324,543.668,495.543,543.668z"/>
			<path fill="#3F3F40" d="M495.543,392.226c-41.857,0-75.792,33.934-75.792,75.792s33.934,75.791,75.792,75.791
				c41.859,0,75.791-33.933,75.791-75.791S537.402,392.226,495.543,392.226z M495.543,534.752
				c-36.855,0-66.733-29.877-66.733-66.734c0-36.856,29.878-66.735,66.733-66.735s66.732,29.879,66.732,66.735
				C562.275,504.875,532.398,534.752,495.543,534.752z"/>
			<path fill="#1A1A1A" d="M495.541,402.111c-36.396,0-65.904,29.508-65.904,65.906c0,36.399,29.508,65.905,65.904,65.905
				c36.398,0,65.906-29.506,65.906-65.905C561.447,431.619,531.939,402.111,495.541,402.111z M496.227,519.018
				c-28.078,0-50.841-22.762-50.841-50.842c0-28.078,22.763-50.841,50.841-50.841c28.08,0,50.842,22.763,50.842,50.841
				C547.068,496.256,524.307,519.018,496.227,519.018z"/>
			<path fill="#1A1A1A" d="M495.541,424.708c-23.918,0-43.309,19.392-43.309,43.308c0,23.921,19.391,43.312,43.309,43.312
				c23.92,0,43.311-19.391,43.311-43.312C538.852,444.1,519.461,424.708,495.541,424.708z M495.992,501.532
				c-18.451,0-33.41-14.959-33.41-33.411c0-18.451,14.959-33.41,33.41-33.41c18.453,0,33.41,14.959,33.41,33.41
				C529.402,486.573,514.445,501.532,495.992,501.532z"/>
			<path fill="#4B4A4B" d="M495.541,416.234c-28.598,0-51.782,23.184-51.782,51.781c0,28.603,23.185,51.785,51.782,51.785
				c28.6,0,51.783-23.183,51.783-51.785C547.324,439.418,524.141,416.234,495.541,416.234z M495.543,511.649
				c-24.098,0-43.633-19.534-43.633-43.632c0-24.097,19.535-43.632,43.633-43.632c24.096,0,43.633,19.535,43.633,43.632
				C539.176,492.115,519.639,511.649,495.543,511.649z"/>
			<circle cx="495.542" cy="468.018" r="33.896"/>
			<circle opacity="0.02" fill="#FFFFFF" cx="495.542" cy="468.018" r="16.478"/>
			<circle opacity="0.02" fill="#FFFFFF" cx="495.193" cy="468.039" r="8.004"/>
			<circle opacity="0.15" fill="#FFFFFF" cx="438.111" cy="435.543" r="16.477"/>
			<circle opacity="0.15" fill="#FFFFFF" cx="552.504" cy="500.5" r="12.24"/>
			<path fill="#242E2D" d="M495.543,361.156c-59.018,0-106.861,47.845-106.861,106.86c0,59.018,47.844,106.861,106.861,106.861
				s106.859-47.844,106.859-106.861C602.402,409.001,554.561,361.156,495.543,361.156z M495.541,565.932
				c-54.077,0-97.916-43.838-97.916-97.915s43.838-97.916,97.916-97.916c54.078,0,97.918,43.839,97.918,97.916
				S549.619,565.932,495.541,565.932z"/>
			<path opacity="0.05" fill="#FFFFFF" d="M588.51,520.635c-0.02,0.035-0.039,0.07-0.057,0.104
				c-28.992,51.407-94.168,69.579-145.572,40.589c-51.406-28.99-69.579-94.165-40.588-145.572c0.019-0.035,0.041-0.068,0.06-0.104
				L588.51,520.635z"/>
		</g>
		<path fill="#2B2627" d="M318.526,298.836l79.189-6.813l1.004,17.233c0,0-79.29,9.937-79.189,6.813L318.526,298.836z"/>
		
			<ellipse transform="matrix(0.9968 -0.0793 0.0793 0.9968 -22.2473 29.3408)" fill="#545554" cx="358.196" cy="294.703" rx="39.883" ry="2.344"/>
		<circle opacity="0.9" fill="#EAEAEA" cx="358.219" cy="354.063" r="12.503"/>
		<path opacity="0.1" d="M348.081,357.78c0-6.905,5.598-12.503,12.503-12.503c3.841,0,7.274,1.735,9.568,4.462
			c-1.849-4.594-6.339-7.841-11.595-7.841c-6.905,0-12.503,5.597-12.503,12.503c0,3.063,1.106,5.866,2.935,8.041
			C348.409,361,348.081,359.43,348.081,357.78z"/>
		
			<ellipse transform="matrix(0.9945 -0.105 0.105 0.9945 -33.7875 32.0265)" fill="#9B9A9A" cx="287.211" cy="336.84" rx="19.927" ry="7.033"/>
		<path fill="#1E1E1E" d="M285.824,327.421c-19.1,2.018-34.005,9.116-33.293,15.857s16.771,10.571,35.871,8.555
			c19.099-2.018,34.005-9.117,33.293-15.858C320.982,329.233,304.922,325.404,285.824,327.421z M287.479,343.098
			c-10.944,1.156-20.147-1.038-20.555-4.901c-0.408-3.862,8.133-7.931,19.078-9.087c10.944-1.155,20.147,1.039,20.555,4.902
			C306.965,337.875,298.423,341.942,287.479,343.098z"/>
		<path opacity="0.1" d="M286.024,333.037c10.029-1.059,18.591,0.697,20.267,3.97c0.552-0.745,0.816-1.506,0.737-2.259
			c-0.408-3.862-9.611-6.057-20.555-4.901c-10.944,1.156-19.486,5.225-19.078,9.087c0.034,0.323,0.135,0.634,0.288,0.932
			C269.962,336.786,277.212,333.968,286.024,333.037z"/>
		<path fill="#232326" d="M403.548,305.609l20.318-46.106c0,0,10.94-13.284,14.065-13.284c0,0,60.172-23.443,117.998,1.563
			c0,0,10.16,9.378,12.504,16.411c0,0,19.537,39.854,21.1,44.542c0,0-29.695-39.072-44.543-41.416c0,0-69.549-10.159-102.369,2.344
			C442.621,269.662,402.767,302.483,403.548,305.609z"/>
	</g>
</g>
<g id="Camera_Refrence" display="none">
	
		<image display="inline" overflow="visible" width="700" height="595" xlink:href="7EB97C1D.jpg"  transform="matrix(1 0 0 1 82 135)">
	</image>
</g>
</svg>
