<?xml version="1.0" encoding="utf-8"?>
<!-- Generator: Adobe Illustrator 16.0.0, SVG Export Plug-In . SVG Version: 6.00 Build 0)  -->
<!DOCTYPE svg PUBLIC "-//W3C//DTD SVG 1.1//EN" "http://www.w3.org/Graphics/SVG/1.1/DTD/svg11.dtd">
<svg version="1.1" xmlns="http://www.w3.org/2000/svg" xmlns:xlink="http://www.w3.org/1999/xlink" x="0px" y="0px" width="864px"
	 height="864px" viewBox="0 0 864 864" enable-background="new 0 0 864 864" xml:space="preserve">
<g id="Layer_2">
	<rect fill="#64896C" width="864" height="866.361"/>
</g>
<g id="Layer_1">
	
		<image overflow="visible" width="1280" height="1280" xlink:href="4926D7DA.jpg"  transform="matrix(0.6608 0 0 0.6608 926.3408 10.7515)">
	</image>
</g>
<g id="Layer_19">
	
		<ellipse transform="matrix(0.6377 0.7703 -0.7703 0.6377 647.7514 -172.8644)" fill="#454545" cx="507.635" cy="602.143" rx="60.28" ry="100.332"/>
</g>
<g id="Layer_17">
	<path fill="#181818" d="M529.646,510.428c0,0-29.333,2-78,50c0,0-46.667,47.999-34,89.333c0,0,6.667,14.668,36.667,31.334
		c0,0-18.668-9.334-11.334-36.667c0,0,18.668-62,79.334-90.667c0,0,38.667-26,70-2c0,0-18.001-31.333-27.334-33.333
		C564.979,518.428,543.646,505.095,529.646,510.428z"/>
</g>
<g id="Layer_16">
	<path fill="#181818" d="M544.313,483.095c0,0-19.635,30.666-24.067,38.666c0,0-8.232,14.667-13.933,22.667
		C506.313,544.428,530.379,522.428,544.313,483.095z"/>
</g>
<g id="Layer_8">
	<path fill="#181818" d="M271.979,335.094c0,0,3.5-46.167,38.333-92.667c0,0-18.667,16.167-26.667,30.667c0,0-11,21.667-14,28.667
		c0,0-5.667,21.333-5.167,26.833C264.479,328.594,260.979,338.094,271.979,335.094z"/>
</g>
<g id="Layer_6">
	<path fill="#333333" d="M544.313,241.094c0,0-32.668-84.334-105.334-91.001c0,0-45.333-4.667-68.667,8.667
		c0,0-42.667,11.668-82,61.668c0,0-36,48.667-48,96c0,0-4.667,22.667,24,20.667c0,0,18-61.333,27.333-70.667
		c0,0,28-40.667,50.667-53.333c0,0,58.667-38,105.333-32C447.646,181.094,504.313,181.094,544.313,241.094z"/>
</g>
<g id="Layer_3">
	<path fill="#454545" d="M446.979,146.427c0,0,86.301,9.908,121.24,134.004c0,0,44.431,121.906-45.24,273.662
		c0,0,34.566-15.229,43-8c0,0,71-139,34.566-251.205C600.545,294.889,573.646,161.094,446.979,146.427z"/>
</g>
<g id="Layer_4">
</g>
<g id="Layer_5">
	<path fill="#181818" d="M316.979,185.761c0,0,50-45.333,118.667-41.333c0,0,59.999,3.333,97.333,59.333
		c0,0,36.667,56,44.335,104.667c0,0,28.998,107.333-50.335,236.667l-7.333-15.334c0,0,49.334-74,46.667-150
		c0,0,4.667-50.667-14-98.667c0,0,5.334-6,0-19.333c0,0-14.667-47.333-46.667-75.333c0,0-40-50.667-122-30
		c0,0-41.336,10.666-64.669,33.333L316.979,185.761z"/>
</g>
<g id="Layer_7">
	<path fill="#181818" d="M322.479,181.094c0,0-75,59-87,136.5c0,0-40.5,117.5,6,217.5l-0.5,5.334c0,0,9.334-8.001,8.667-10.667
		c0,0-23.333-34-23.333-114.667c0,0,4-67.5,16.667-89.5c0,0-3-6.833-1-11.5s10-60.5,78.5-126L322.479,181.094z"/>
</g>
<g id="Layer_9">
	<path fill="#5F6060" d="M241.479,328.094c0,0,13.5,8.334,30,6.5c0,0-31.5,92.5-1.5,170.5c0,0-19,17.5-20,26.5
		C249.979,531.594,201,439.667,241.479,328.094z"/>
</g>
<g id="Layer_10">
	<path fill="#181818" d="M240.312,319.76c0,0,20,9.334,27.333,7.334c0,0-0.667,4,4,7.333c0,0-24,2-30-6.667
		C241.646,327.76,236.312,324.427,240.312,319.76z"/>
</g>
<g id="Layer_11">
	<path fill="#181818" d="M240.979,535.094c0,0-0.667,2.667-0.667,12c0,0-15.333,18.667,1.333,52.667c0,0,23.333,58,86.667,65.333
		c0,0,23.333-0.667,44-16.667c0,0-36,20-90.667-30c0,0-41.333-41.999-32-87.333C249.646,531.094,242.979,527.761,240.979,535.094z"
		/>
</g>
<g id="Layer_12">
	<path fill="#2D2E30" d="M285.646,494.428c0,0-23.333,13.333-12,54.666c0,0,36.667,96,120,82c0,0-10.667,16-28.667,22
		c0,0-38,23.333-94-43.333c0,0-31.312-40.761-22-78C248.979,531.761,260.979,505.094,285.646,494.428z"/>
</g>
<g id="Layer_15">
	<path fill="#242426" d="M281.844,497.543c22.157-17.832,65.153-5.73,96.387,30.876c46.082,54.008,20.066,98.021,18.081,100.008
		c-20.107,20.117-66,1.334-95.04-31.555C269.422,560.8,257.667,517,281.844,497.543z"/>
</g>
<g id="Layer_13">
	<path fill="#2A2B2B" d="M316.312,532.428c0,0,29.333,2.665,40,27.999c0,0,12,18.668,6.667,31.334c0,0-16-2.667-34.667-24
		C328.312,567.761,307.646,544.428,316.312,532.428z"/>
</g>
<g id="Layer_14">
	<path fill="#181919" d="M315.646,533.094c0,0,26,2.666,37.333,21.333c0,0,18,25.334,8.667,37.334c0,0,15.333,5.333,20-6.667
		c0,0,8-13.334-6.667-33.333c0,0-14.666-22.667-37.333-30.667C337.646,521.094,315.646,518.428,315.646,533.094z"/>
</g>
<g id="Layer_18">
	<path fill="#202121" d="M564.184,553.367c0,0-22.829-16.479-74.498,30.518c0,0-48.064,35.399-30.04,79.344
		c0,0,8.411,14.036,21.028,19.53c0,0,33.643-3.052,56.474-19.53c0,0,43.258-34.18,46.862-67.138
		C584.01,596.091,588.216,564.354,564.184,553.367z"/>
</g>
<g id="Layer_20">
	<path fill="#181818" d="M507.709,597.313c0,0,63.685-49.439,75.1-13.428c0,0,9.014,22.582-22.83,57.371
		c0,0-26.436,33.569-57.076,36.62c0,0-22.828,6.715-29.438-10.375c0,0-4.207-24.415,11.414-43.335
		C484.879,624.166,501.101,602.194,507.709,597.313z"/>
</g>
<g id="Layer_21">
	<path fill="#2D2E30" d="M584.01,588.768c0,0-0.601-17.09-8.411-23.193c0,0-3.004-9.155-32.442-0.61c0,0-28.84,14.648-34.846,21.362
		c0,0-22.23,18.92-30.643,31.737c0,0-17.423,23.192-12.615,48.827c0,0,4.806,9.765,14.418,15.259c0,0,6.609,0.609,13.82-3.054
		c0,0-19.227,3.054-20.428-18.918c0,0-1.801-19.532,13.217-37.843c0,0,16.222-21.36,34.246-34.178c0,0,29.438-18.921,43.257-17.09
		C563.583,571.067,580.405,567.405,584.01,588.768z"/>
</g>
<g id="Layer_22">
	<path fill="#2D2E30" d="M416.979,650.094c0,0-1.999-91,109.667-139l8.333-13.666c0,0-29-11.334-70,10.666c0,0-52,38-59,70
		C405.979,578.094,397.979,617.094,416.979,650.094z"/>
</g>
</svg>
