<?xml version="1.0" encoding="utf-8"?>
<!-- Generator: Adobe Illustrator 16.0.0, SVG Export Plug-In . SVG Version: 6.00 Build 0)  -->
<!DOCTYPE svg PUBLIC "-//W3C//DTD SVG 1.1//EN" "http://www.w3.org/Graphics/SVG/1.1/DTD/svg11.dtd">
<svg version="1.1" xmlns="http://www.w3.org/2000/svg" xmlns:xlink="http://www.w3.org/1999/xlink" x="0px" y="0px" width="864px"
	 height="864px" viewBox="0 0 864 864" enable-background="new 0 0 864 864" xml:space="preserve">
<g id="Layer_8">
	<rect x="-70.384" y="-41.885" fill="#8888AA" width="998.95" height="980.951"/>
</g>
<g id="Layer_7">
	<path fill="#C5A981" d="M169.507,680.998c0,0-4.396-5.919-5.001-28.998c0,0,42.939-271.927,92.337-339.397
		c0,0,65.625-95.747,101.315-117.472c2.079-1.266,4.057-2.28,5.914-3.01c33.735-13.253,79.518-26.506,108.434-4.819
		c0,0,38.555,25.301,61.446,86.747c0,0,24.097,78.312,22.892,149.397c0,0,0.001,38.555-13.253,51.808
		c0,0-280.994,218.608-305.091,228.247S195.507,696.998,169.507,680.998z"/>
</g>
<g id="Layer_5">
	<path fill="#3F272B" d="M351,475c0,0-17.612,57.775-16,61c1,2-8,9-8,9c-21.923,72.2-21.592,60.185-26,69c-6,12-7,16-7,16l-14,45
		c0,0-7,9-42,28C238,703,330,352,351,475z"/>
</g>
<g id="Meat">
	<path fill="#3F272B" d="M243,693c0,0,16,7,39-29c0,0,8-18,9-25c0,0-35-15-48,5C243,644,221,682,243,693z"/>
	<path fill="#6D4448" d="M290,638c0,0,4-15,9-22c0,0-8-22-22,6C277,622,276,641,290,638z"/>
	<path fill="#2D1B1B" d="M278,636c0,0,18-40-11-22c0,0-22,16-18,24C249,638,269,643,278,636z"/>
	<path fill="#2D1B1B" d="M254,569c0,0,8-17-13-8c0,0-27,26-24,33s-3-7-3-7s9,26,20,20C234,607,256,577,254,569z"/>
	<path fill="#2D1B1B" d="M179.797,569c0,0,26.565-34,41.619-25c0,0,18.596,17-33.649,44C187.766,588,173.598,589,179.797,569z"/>
	<path fill="#2D1B1B" d="M255,564c0,0,20-33,14-44c0,0-40-13-50-2C219,518,244,558,255,564z"/>
	<path fill="#2D1B1B" d="M203,630c0,0,10,57,22,64c0,0,16,15,29,0c0,0,0-60-22-67C232,627,200,613,203,630z"/>
	<path fill="#2D1B1B" d="M297,613c0,0,8-43,16-49c0,0-27-6-30,8C283,572,276,604,297,613z"/>
	<path fill="#2D1B1B" d="M351,478l-18,34c0,0-26,2-33-9C300,503,293,442,351,478z"/>
	<path fill="#2D1B1B" d="M200.767,493c0,0-6.26-14,3.577-17c0,0-9.837-14,4.472-25c0,0,4.472-24,8.049-28c0,0,22.356-31,31.3-31
		c0,0,105.524,25,102.842,87c0,0-23.251,48-25.934,55C325.072,534,218.652,551,200.767,493z"/>
	<path fill="#56373B" d="M285,432c0,0,12,27.334-29.333,32.667c0,0-33.334-8-36.667-18c0,0,6.667-20.667,16-20c0,0-1.333-14,8-14
		C243,412.667,293,398.666,285,432z"/>
	<path fill="#472934" d="M203,421c0,0,22-28,33-28c0,0,11-2,20,5c0,0-27,38-18,53C238,451,208,445,203,421z"/>
	<path fill="#352327" d="M253,692c0,0-13,20-27,1c0,0,18-34,28-22C254,671,262,683,253,692z"/>
	<path fill="#472F34" d="M221.002,557.939c0,0,0.794-17.329-11.914-14.028c0,0-23.828,17.329-27.005,20.63
		c-3.177,3.301,0-4.126,0-4.126s-7.148,23.931,8.737,17.329C190.821,577.744,221.002,565.366,221.002,557.939z"/>
	<path fill="#44252B" d="M256,542c0,0-1-19-20,0c0,0-5,40,5,40C241,582,266,568,256,542z"/>
	<path fill="#351D1D" d="M246,578c0,0-13-27-31,14C215,592,239,633,246,578z"/>
	<path fill="#472934" d="M212,508c0,0,55,2,61,13c0,0-8,45-60,4C213,525,204,509,212,508z"/>
	<path fill="#3F272B" d="M214,419c0,0,6-12,19-19c0,0-1,15,9,18c0,0,18,28,6,32c0,0-24,8-28,1C220,451,201,426,214,419z"/>
	<path fill="#472934" d="M208.016,495c0,0-16-9,0-20c0,0-14-16,5-22c0,0,31,10,35,27C248.016,480,226.016,505,208.016,495z"/>
	<path fill="#472934" d="M209,627c0,0,26,7,31,21c0,0,6,21-17,11C223,659,195,643,209,627z"/>
	<path fill="#472934" d="M250,638c0,0,14-34,30-30c0,0,13,5-2,27C278,635,259,655,250,638z"/>
	<path fill="#472934" d="M316,495c0,0,14-34,30-30c0,0,13,5-2,27C344,492,325,512,316,495z"/>
	<path fill="#472934" d="M231,606c0,0-27-11-22-19c0,0,24-29,37-18C246,569,245,602,231,606z"/>
	<path fill="#472934" d="M298,614c0,0,10-49,17-53c0,0-21-3-25,12C290,573,275,616,298,614z"/>
	<path fill="#472934" d="M225,488c0,0,8-17,16-15c0,0-2,8,10,5c0,0,11,2,11,13c0,0-19,11-9,18s2,4,2,4s-28,3-36-10
		C219,503,215,485,225,488z"/>
	<path fill="#6D4448" d="M203.008,451c0,0,3-27,12-32c0,0,0,4,14,4c0,0,15,4,17,13c0,0-15,35-26,31
		C220.008,467,205.008,463,203.008,451z"/>
	<path fill="#3F272B" d="M263,508c0,0,26,12,32-22c0,0-23-17-45-3C250,483,245,504,263,508z"/>
	<path fill="#352327" d="M247,457c0,0,10-11,24-2c0,0,3,25,12,29c0,0-36,16-38,8C245,492,230,457,247,457z"/>
	<path fill="#623A3B" d="M327,395c0,0-6-31,13-29C340,366,370,373,327,395z"/>
	<path fill="#6D4448" d="M305,512c0,0,18,6,26-16c0,0-5-41-30-14C301,482,293,510,305,512z"/>
	<path fill="#54373A" d="M316.396,481.15c0,0-19.327-19.327-34.413-24.984c0,0-20.741-8.484-12.256-16.027
		c0,0,29.228-10.37,31.113-5.657c0,0,3.298,7.07,0.471,8.956c0,0,16.5-4.241,18.857-2.828c0,0,9.9,7.071,4.714,11.313
		c0,0,9.428,4.714,8.485,5.657c0,0,8.957-0.472,10.371,3.771C343.737,461.352,342.795,483.979,316.396,481.15z"/>
	<path fill="#3F272B" d="M257,559c0,0,0-15-5-16c0,0,14-10,14-15c0,0,23-13,29-2c0,0,4,33-11,44C284,570,256,573,257,559z"/>
	<path fill="#623A3B" d="M280.584,410.307c0,0,34.941,1.147,37.886,29.119c0,0,7.361,16.195-1.296,19.234
		c0,0-18.192,1.188-25.163-2.904c0,0-17.937-20.529-27.716-18.773C264.295,436.982,268.239,414.305,280.584,410.307z"/>
	<path fill="#3F272B" d="M271,479c0,0,0-15-5-16c0,0,14-10,14-15c0,0,23-13,29-2c0,0,4,33-11,44C298,490,270,493,271,479z"/>
	<path fill="#56373B" d="M297,581c0,0,12,27.334-29.333,32.667c0,0-33.334-8-36.667-18c0,0,6.667-20.667,16-20c0,0-1.333-14,8-14
		C255,561.667,305,547.666,297,581z"/>
	<path fill="#623A3B" d="M220.229,635.036c0,0-1.205-34.939,26.506-39.759c0,0,15.663-8.434,19.277,0c0,0,2.409,18.071-1.205,25.301
		c0,0-19.277,19.277-16.867,28.916C247.94,649.494,225.048,647.084,220.229,635.036z"/>
	<path fill="#6D4448" d="M202.443,496.482c0,0-4.27-10.843-17.081,8.434c0,0-10.676,18.072-7.474,26.506
		c0,0,14.946-2.409,8.541,9.639c0,0,6.405,12.048,4.27,25.301c0,0,12.306-3.36,13.487-6.027c0,0-0.59-10,7.089-8
		c0,0,5.316-4.667,4.135-8.667c0,0,5.316,4.667,12.996,0.667c0,0,2.363-16.667,7.68-16.667c0,0-5.316-15.333-8.861-15.333
		c0,0-7.68-5.334,7.68-4.667c0,0,9.451-5.999,0.59-11.333c0,0,2.953-19.334-14.177-8.667
		C221.318,487.667,202.471,480.631,202.443,496.482z"/>
	<path fill="#6D4448" d="M283.667,563.667c0,0,4.666,8.001,11.333,2.667c0,0,4.667,15.333,16.667-4.667c0,0,18-13.333,13.333-25.333
		c0,0,2.667-18.667-14-12.667c0,0-21.333,0.001-19.333,18.667C291.667,542.334,281,555,283.667,563.667z"/>
	<path fill="#623A3B" d="M292.333,527c0,0,13.333,2.001,16.667-8.666c0,0-3.333-13.333-10-16c0,0-31.333,8-32.667,13.333
		c0,0,3.333,16.667,12,24C278.333,539.667,287.667,543,292.333,527z"/>
	<path fill="#6D4448" d="M235,663.667c0,0,4,5.334,12,8.667c0,0,3.333-5.333,7.333,0c0,0,15.333-15.334,24-19.334
		c0,0-6-15.332-3.333-16.666s-8,8-10.667,5.333C264.333,641.667,241,630.334,235,663.667z"/>
	<path fill="#56373B" d="M223,513c0,0,12.667-19.999,27.333-16.666c0,0,29.333,6.666,28,16.666c0,0-10.667,13.334-27.333,10.667
		C251,523.667,228.333,519.666,223,513z"/>
	<path fill="#56373B" d="M231,685c0,0-12.666,25.334-23.333,4.667c0,0,2.666-10.001-4.667-12.667c0,0-4-5.333,1.333-9.333
		c0,0,4-16-1.333-18c0,0,8.667-28.667,17.333,3.333C220.333,653,261.667,668.333,231,685z"/>
	<path fill="#56373B" d="M235.665,530.336c0,0,3.333,16,10.667,19.333c0,0,8.667,17.999-8.667,21.333c0,0-5.333-3.334-9.333,8
		c0,0-6.667-0.666-8.667,9.334c0,0-11.334,8-12.667-2.667c0,0-8-18-3.333-18c0,0,6.667-1.333,8-3.333c0,0,15.333-5.334,2-12.667
		c0,0-2-23.334,8.667-22.667C222.332,529.002,235.665,533.67,235.665,530.336z"/>
	<path fill="#6D4448" d="M199.667,624.334c0,0,14.667,3.334,18,10c0,0,23.333-12,16-26c0,0-9.333-7.334-8-16.667
		c0,0-16,0.001-16.667-5.333c0,0-0.667-20.001-6.667-19.334c0,0-18,10-20.667,24c0,0,0.667,26.667-7.333,26.667
		C174.333,617.667,179,633.001,199.667,624.334z"/>
	<path fill="#54373A" d="M243.667,456.334c0,0-10-1.334-14,9.333c0,0-11.333,21.333-4,30c0,0,8.667-18.667,12-18.667
		C237.667,477,247.667,460.334,243.667,456.334z"/>
	<path fill="#54373A" d="M207.667,627c0,0,0,27.333,6.667,42c0,0,8.667,20.666-2.667,20c0,0-28-13.334-26-18
		c0,0,2.667-7.332,6-6.666c0,0-14.667-8.668-15.333-11.334c0,0-2-12,4.667-11.333c0,0-3.333-10-2-10c0,0-6.667-6-4.667-10
		C174.333,621.667,191,606.333,207.667,627z"/>
	<path fill="#54373A" d="M326,522c0,0,12-11,7-19s-12-13-23-1C310,502,291,535,326,522z"/>
	<path fill="#54373A" d="M215,462c0,0,14-6,7-22c0,0,18,10,27,9c0,0-1,31-16,39C233,488,208,469,215,462z"/>
	<path fill="#6D4448" d="M280,487c0,0,12-2,14,1s2,3,2,3s5-12,7-9c0,0-3,26-3,27s4,1,4,1h-4C300,510,275,520,280,487z"/>
</g>
<g id="Cheese">
	<path fill="#F9C85A" d="M208.573,450.404c0,0,35.098-68.192,90.993-51.77c0,0,5.228,9.729-0.685,11.159
		c-5.913,1.43-33.813-25.82-78.776,49.832C220.105,459.625,205.52,463.659,208.573,450.404z"/>
	<path fill="#E5B960" d="M263,401c0,0,59-49,104-12c0,0,1,11-5,10s-21-37-92,15C270,414,255,412,263,401z"/>
	<path fill="#F9C85E" d="M255.125,447.329c0,0,33.658-68.914,89.886-53.67c0,0,5.431,9.618-0.45,11.171
		c-5.881,1.553-34.348-25.105-77.713,51.474C266.848,456.305,252.351,460.645,255.125,447.329z"/>
	<path fill="#E2B756" d="M310.19,495.356c0,0,19.549-74.161,77.671-70.194c0,0,7.206,8.373,1.741,11.043
		c-5.464,2.673-38.59-17.912-66.162,65.663C323.44,501.869,310.07,508.957,310.19,495.356z"/>
	<path fill="#F6BE3F" d="M278.852,476.564c0,0,46.099-61.294,98.423-35.678c0,0,3.512,10.473-2.557,10.883
		c-6.069,0.413-28.972-31.154-86.055,35.828C288.664,487.598,273.607,489.113,278.852,476.564z"/>
	<path fill="#EAC167" d="M309.552,516.251c0,0,25.377-72.375,83-63.804c0,0,6.518,8.918,0.858,11.146
		c-5.659,2.231-37.045-20.92-71.167,60.202C322.243,523.795,308.353,529.799,309.552,516.251z"/>
	<path fill="#FEDB7E" d="M267.334,464.98c0,0,35.742-67.857,91.479-50.907c0,0,5.136,9.779-0.79,11.15
		c-5.925,1.375-33.566-26.139-79.245,49.085C278.778,474.309,264.156,478.205,267.334,464.98z"/>
	<path fill="#F9C85A" d="M209.65,411.61c0,0,22.896-73.197,80.778-66.594c0,0,6.818,8.69,1.238,11.111s-37.737-19.646-69.075,62.591
		C222.592,418.718,208.913,425.191,209.65,411.61z"/>
	<path fill="#E2A83F" d="M209.264,410.625c0,0,44.726-62.302,97.606-37.854c0,0,3.744,10.392-2.314,10.938
		c-6.058,0.546-29.658-30.503-85.237,37.73C219.318,421.438,204.298,423.289,209.264,410.625z"/>
	<path fill="#E2A83F" d="M302,472c0,0,59-49,104-12c0,0,1,11-5,10s-21-37-92,15C309,485,294,483,302,472z"/>
	<path fill="#F9C85E" d="M296.125,476.329c0,0,33.658-68.914,89.886-53.67c0,0,5.431,9.618-0.45,11.171
		c-5.881,1.554-34.348-25.104-77.713,51.475C307.848,485.305,293.351,489.645,296.125,476.329z"/>
	<path fill="#E2B756" d="M263.634,424.85c0,0,55.103-53.346,102.787-19.876c0,0,1.833,10.894-4.225,10.352
		c-6.059-0.54-23.754-35.295-90.593,21.954C271.604,437.279,256.494,436.426,263.634,424.85z"/>
	<path fill="#F6BE3F" d="M284.838,443.558c0,0,60.365-47.31,104.299-9.05c0,0,0.688,11.024-5.28,9.854
		c-5.97-1.169-19.944-37.58-92.388,12.39C291.468,456.751,276.531,454.326,284.838,443.558z"/>
	<path fill="#EAC167" d="M268.34,442.169c0,0,47.402-60.292,99.166-33.56c0,0,3.286,10.545-2.79,10.825
		c-6.076,0.283-28.298-31.768-86.803,33.976"/>
	<path fill="#FEDB7E" d="M298.334,487.98c0,0,35.742-67.857,91.479-50.907c0,0,5.137,9.779-0.789,11.15
		c-5.925,1.375-33.566-26.139-79.245,49.085C309.778,497.309,295.156,501.205,298.334,487.98z"/>
	<path fill="#F9C85E" d="M205.125,410.329c0,0,33.658-68.914,89.886-53.67c0,0,5.431,9.618-0.45,11.171
		c-5.881,1.553-34.348-25.105-77.713,51.474C216.848,419.305,202.351,423.645,205.125,410.329z"/>
	<path fill="#E2B756" d="M260.19,458.356c0,0,19.549-74.161,77.671-70.194c0,0,7.206,8.373,1.741,11.043
		c-5.464,2.673-38.59-17.912-66.162,65.663C273.44,464.869,260.07,471.957,260.19,458.356z"/>
	<path fill="#F6BE3F" d="M228.852,439.564c0,0,46.099-61.294,98.423-35.678c0,0,3.512,10.473-2.557,10.883
		c-6.069,0.413-28.972-31.154-86.055,35.828C238.664,450.598,223.607,452.113,228.852,439.564z"/>
	<path fill="#EAC167" d="M259.552,479.251c0,0,25.377-72.375,83-63.804c0,0,6.518,8.918,0.858,11.146
		c-5.659,2.231-37.045-20.92-71.167,60.202C272.243,486.795,258.353,492.799,259.552,479.251z"/>
	<path fill="#FEDB7E" d="M217.334,427.98c0,0,35.742-67.857,91.479-50.907c0,0,5.136,9.779-0.79,11.15
		c-5.925,1.375-33.566-26.139-79.245,49.085C228.778,437.309,214.156,441.205,217.334,427.98z"/>
	<path fill="#E2A83F" d="M252,435c0,0,59-49,104-12c0,0,1,11-5,10s-21-37-92,15C259,448,244,446,252,435z"/>
	<path fill="#F9C85E" d="M246.125,439.329c0,0,33.658-68.914,89.886-53.67c0,0,5.431,9.618-0.45,11.171
		c-5.881,1.554-34.348-25.104-77.713,51.475C257.848,448.305,243.351,452.645,246.125,439.329z"/>
	<path fill="#E2B756" d="M213.634,387.85c0,0,55.103-53.346,102.787-19.876c0,0,1.833,10.894-4.225,10.352
		c-6.059-0.54-23.754-35.295-90.593,21.954C221.604,400.279,206.494,399.426,213.634,387.85z"/>
	<path fill="#F6BE3F" d="M234.838,406.558c0,0,60.365-47.31,104.299-9.05c0,0,0.688,11.024-5.28,9.854
		c-5.97-1.169-19.944-37.58-92.388,12.39C241.468,419.751,226.531,417.326,234.838,406.558z"/>
	<path fill="#EAC167" d="M218.34,405.169c0,0,47.402-60.292,99.166-33.56c0,0,3.286,10.545-2.79,10.825
		c-6.076,0.283-28.298-31.768-86.803,33.976"/>
	<path fill="#FEDB7E" d="M248.334,450.98c0,0,35.742-67.857,91.479-50.907c0,0,5.137,9.779-0.789,11.15
		c-5.925,1.375-33.566-26.139-79.245,49.085C259.778,460.309,245.156,464.205,248.334,450.98z"/>
	<path fill="#F6BE3F" d="M210.763,424.328c0,0,50.076-58.089,100.579-29.046c0,0,2.808,10.682-3.276,10.689
		c-6.082,0.006-26.834-33.015-88.247,30.02C219.818,435.991,204.693,436.502,210.763,424.328z"/>
	<path fill="#F9C85A" d="M237.352,434.814c0,0,23.643-72.959,81.455-65.765c0,0,6.729,8.759,1.124,11.124
		c-5.604,2.364-37.533-20.03-69.71,61.881C250.22,442.055,236.476,448.389,237.352,434.814z"/>
	<path fill="#E5B960" d="M283.101,377.281c0,0,50.327-57.873,100.704-28.613c0,0,2.761,10.695-3.322,10.676
		c-6.083-0.02-26.691-33.13-88.377,29.638C292.105,388.982,276.979,389.427,283.101,377.281z"/>
	<path fill="#F9C85E" d="M282.798,424.273c0,0,22.106-73.439,80.056-67.461c0,0,6.911,8.616,1.357,11.098
		c-5.553,2.481-37.946-19.238-68.396,63.332C295.815,431.241,282.208,437.861,282.798,424.273z"/>
	<path fill="#E2B756" d="M344.888,462.793c0,0,7.335-76.343,65.336-81.799c0,0,8.461,7.102,3.499,10.618
		c-4.962,3.519-40.973-11.455-54.708,75.472C359.015,467.084,346.962,476.235,344.888,462.793z"/>
	<path fill="#F6BE3F" d="M310.93,449.3c0,0,35.612-67.925,91.382-51.081c0,0,5.155,9.77-0.768,11.153
		c-5.923,1.386-33.617-26.075-79.152,49.235C322.392,458.607,307.776,462.53,310.93,449.3z"/>
	<path fill="#EAC167" d="M347.627,483.518c0,0,13.375-75.52,71.626-76.353c0,0,7.87,7.75,2.644,10.861
		c-5.225,3.115-39.934-14.673-60.529,70.89C361.369,488.916,348.628,497.081,347.627,483.518z"/>
	<path fill="#FEDB7E" d="M297.694,439.725c0,0,24.333-72.732,82.074-64.991c0,0,6.645,8.823,1.019,11.132
		c-5.625,2.313-37.342-20.384-70.293,61.221C310.493,447.086,296.69,453.289,297.694,439.725z"/>
	<path fill="#F9C85A" d="M232.16,396.354c0,0,10.793-75.931,68.983-78.748c0,0,8.13,7.477,3.013,10.767
		c-5.116,3.29-40.411-13.304-58.078,72.91C246.078,401.282,233.622,409.876,232.16,396.354z"/>
	<path fill="#E2A83F" d="M231.62,395.445c0,0,34.094-68.699,90.225-53.098c0,0,5.371,9.652-0.521,11.167
		c-5.891,1.516-34.188-25.321-78.038,50.98C243.286,404.495,228.761,408.743,231.62,395.445z"/>
	<path fill="#E2A83F" d="M333.039,441.063c0,0,50.327-57.872,100.704-28.612c0,0,2.761,10.695-3.321,10.675
		c-6.083-0.02-26.691-33.13-88.378,29.639C342.043,452.765,326.917,453.209,333.039,441.063z"/>
	<path fill="#F9C85E" d="M327.938,446.283c0,0,22.106-73.44,80.056-67.461c0,0,6.911,8.617,1.357,11.097
		c-5.553,2.481-37.946-19.238-68.396,63.332C340.955,453.251,327.348,459.871,327.938,446.283z"/>
	<path fill="#E2B756" d="M287.572,400.716c0,0,45.78-61.533,98.237-36.189c0,0,3.565,10.455-2.5,10.897
		c-6.066,0.444-29.134-31.003-85.867,36.274C297.441,411.698,282.392,413.292,287.572,400.716z"/>
	<path fill="#F6BE3F" d="M311.515,415.76c0,0,51.946-56.425,101.475-25.749c0,0,2.457,10.769-3.623,10.576
		c-6.081-0.191-25.743-33.872-89.181,27.125C320.186,427.712,305.053,427.727,311.515,415.76z"/>
	<path fill="#EAC167" d="M295.009,417.05c0,0,37.061-67.146,92.457-49.111c0,0,4.943,9.877-1.008,11.133
		c-5.951,1.259-33.05-26.79-80.189,47.527"/>
	<path fill="#FEDB7E" d="M322.998,477.426c0,0,24.333-72.733,82.073-64.992c0,0,6.646,8.823,1.019,11.132
		c-5.625,2.312-37.342-20.384-70.293,61.22C335.796,484.786,321.994,490.989,322.998,477.426z"/>
	<path fill="#F9C85E" d="M227.487,395.82c0,0,22.105-73.439,80.056-67.461c0,0,6.911,8.616,1.357,11.098
		c-5.554,2.481-37.946-19.238-68.396,63.332C240.504,402.788,226.896,409.408,227.487,395.82z"/>
	<path fill="#E2B756" d="M289.576,434.34c0,0,7.335-76.343,65.337-81.8c0,0,8.461,7.102,3.499,10.618
		c-4.962,3.519-40.973-11.455-54.708,75.473C303.703,438.631,291.651,447.781,289.576,434.34z"/>
	<path fill="#F6BE3F" d="M255.618,420.847c0,0,35.613-67.925,91.382-51.081c0,0,5.154,9.77-0.769,11.153
		c-5.923,1.386-33.616-26.075-79.151,49.235C267.08,430.153,252.465,434.077,255.618,420.847z"/>
	<path fill="#EAC167" d="M292.315,455.063c0,0,13.375-75.52,71.626-76.352c0,0,7.87,7.75,2.645,10.861
		c-5.225,3.115-39.934-14.673-60.529,70.89C306.057,460.463,293.316,468.628,292.315,455.063z"/>
	<path fill="#FEDB7E" d="M242.383,411.271c0,0,24.333-72.733,82.073-64.992c0,0,6.646,8.823,1.019,11.132
		c-5.625,2.313-37.342-20.384-70.293,61.221C255.181,418.632,241.379,424.835,242.383,411.271z"/>
	<path fill="#E2A83F" d="M277.727,438.609c0,0,50.327-57.872,100.704-28.612c0,0,2.76,10.695-3.322,10.675
		s-26.691-33.13-88.377,29.638C286.731,450.311,271.605,450.756,277.727,438.609z"/>
	<path fill="#F9C85E" d="M272.627,417.829c0,0,22.105-73.439,80.056-67.461c0,0,6.91,8.616,1.356,11.097
		c-5.553,2.481-37.946-19.238-68.396,63.332C285.644,424.797,272.036,431.418,272.627,417.829z"/>
	<path fill="#E2B756" d="M232.26,372.262c0,0,45.78-61.533,98.237-36.189c0,0,3.565,10.455-2.5,10.897
		c-6.066,0.444-29.134-31.003-85.868,36.274C242.129,383.244,227.081,384.838,232.26,372.262z"/>
	<path fill="#F6BE3F" d="M256.203,387.307c0,0,51.946-56.425,101.475-25.749c0,0,2.458,10.769-3.622,10.576
		c-6.081-0.191-25.743-33.872-89.182,27.125C264.874,399.258,249.742,399.273,256.203,387.307z"/>
	<path fill="#EAC167" d="M239.698,388.596c0,0,37.06-67.146,92.457-49.111c0,0,4.943,9.877-1.008,11.133
		c-5.951,1.259-33.05-26.79-80.188,47.527"/>
	<path fill="#FEDB7E" d="M276.686,428.972c0,0,24.333-72.732,82.073-64.991c0,0,6.646,8.823,1.019,11.132
		c-5.625,2.312-37.342-20.384-70.293,61.221C289.484,436.333,275.682,442.536,276.686,428.972z"/>
	<path fill="#F6BE3F" d="M235.309,408.727c0,0,40.054-65.403,94.579-44.884c0,0,4.494,10.089-1.509,11.078
		c-6.001,0.987-31.806-28.256-82.252,43.856C246.126,418.777,231.281,421.72,235.309,408.727z"/>
</g>
<g id="Layer_21">
	<path fill="#899E46" d="M471.951,218.483c0,0-10.499-13.5,3-15c0,0,6,9,16.499,4.5c0,0,26.998-3,28.498,10.5
		c0,0-4.499,25.499-8.999,25.499s-7.499-6-19.499-12S468.951,227.482,471.951,218.483z"/>
</g>
<g id="Layer_20">
	<path fill="#C9C976" d="M393.955,257.481c0,0-19.486-9.169-19.38-22.499c0.015-1.918,0.437-3.923,1.38-6c7.5-16.5,3,9,15-17.999
		c0,0,8.999-16.499,23.999-9c0,0,34.499,22.499,34.499,13.499c0,0,35.998,14.999,40.498,38.998h-89.996
		C399.955,254.481,407.455,257.481,393.955,257.481z"/>
</g>
<g id="Layer_19">
	<path fill="#C9C976" d="M455.452,221.483c0,0,26.998-12,31.498-6c0,0,19.498,15,32.998,15c0,0,18,8.999-10.499,23.999
		s-43.498-1.5-43.498-10.5S465.952,221.483,455.452,221.483"/>
</g>
<g id="Layer_18">
	<path fill="#B8BC34" d="M431.453,230.482c0,0-5.999-13.499,23.999-9c0,0,17.999,10.499,35.998,10.499c0,0,23.999,7.5,17.999,22.499
		s-34.498,7.5-40.498,3s-43.498-18-47.998-13.5S431.453,230.482,431.453,230.482z"/>
</g>
<g id="Layer_17">
	<path fill="#9F9B52" d="M425.457,224.477c0,0,22.5,12,29.999,10.5c0,0,31.499-7.5,41.998,11.999c0,0-16.499,16.499-3,31.499
		c0,0-29.998,13.5-37.498,4.5S405.958,236.476,425.457,224.477z"/>
</g>
<g id="Layer_15">
	<path fill="#899E46" d="M501.949,264.98c0,0-29.999,23.999-43.498,12c0,0-26.998-9-44.997-10.5c0,0-56.997-22.499-41.998-35.998
		c0,0,23.999,13.499,34.498,4.5c0,0,47.997-6,52.497,7.5C458.451,242.481,482.45,278.48,501.949,264.98z"/>
</g>
<g id="Layer_14">
	<path fill="#B6B441" d="M497.449,281.479c0,0-43.498-9-38.998-35.998c0,0-22.498-7.5-32.998,1.5c0,0-16.499,6-26.999,1.5
		c0,0-49.498-21-50.998,3s-1.5-6-1.5-6s-20.999-4.5-13.499,16.499s-1.5,6-1.5,6s3,20.999,32.999,17.999
		c0,0,43.498,22.499,47.998,31.499s20.998,17.999,31.498,4.5S479.449,273.979,497.449,281.479z"/>
</g>
<g id="Layer_13">
	<path fill="#C9C976" d="M353.457,275.48c0,0-6-22.499,20.999-26.999c0,0-7.5,3,17.999,9c0,0,55.498,0,61.497,14.999
		s-20.999,25.499-3,47.998c0,0-32.999,6-34.499-13.499c0,0-14.343-14.343-27.209-18.983c-4.289-1.547-8.414-2.016-11.789-0.516
		c-13.499,6-49.498,6-46.498-4.5S341.458,296.479,353.457,275.48z"/>
</g>
<g id="Layer_11">
	<path fill="#899E46" d="M321.958,302.479c0,0,4.5-29.999-3-31.499s-7.5-1.5-7.5-1.5s1.5-9,28.499,0c0,0,6,16.499,25.499,1.5
		c0,0,32.999-7.499,43.498,7.5c0,0,4.499,17.999,32.998,23.999c0,0,12,35.998-8.999,37.498s-12-17.999-40.498-17.999
		c0,0-55.498,7.5-52.498-6c0,0-46.498-6-31.499-19.499C308.459,296.479,312.959,276.979,321.958,302.479z"/>
</g>
<g id="Layer_10">
	<path fill="#C6B846" d="M336.958,296.479c0,0,9-13.5,19.499-6s34.499,3,34.499-3s25.499-12,26.999-1.5s44.998,18,44.998,22.499
		s3,50.997-16.499,50.997s-43.498-19.499-43.498-1.5s-25.499,9-32.999,0s-23.999-19.499-31.499-12s-13.499-16.499-13.499-20.999
		S320.458,278.48,336.958,296.479z"/>
</g>
<g id="Layer_9">
	<path fill="#C6C65A" d="M339.958,359.476c0,0-29.999-37.498-40.498-34.498s-25.498-14.999-13.499-19.499s38.998-19.499,44.998-9
		s6,26.999,23.999,26.999s40.498,10.5,40.498,20.999s16.5-11.999,22.499-7.5s22.5,13.499,16.5,23.999s-22.499,18-35.999,13.5
		s-44.998-16.499-44.998-10.5s-20.999-6-20.999-6S342.958,368.475,339.958,359.476z"/>
</g>
<g id="Layer_12">
	<path fill="#899E46" d="M312.959,371.475c0,0-28.499,1.5-31.499-12s-20.999,0-20.999,0s-7.5-17.999,3-22.499
		c0,0,16.499,0,17.999-16.5c0,0,28.499,3,40.498,15C321.958,335.477,332.458,369.975,312.959,371.475z"/>
</g>
<g id="Layer_16">
	<path fill="#899E46" d="M420.954,396.974c0,0-49.498-32.999-59.997-22.499c0,0,10.5-16.5-7.5-22.499c0,0,29.998-13.5,34.498-3
		c0,0,7.5,20.999,17.999,15C405.954,363.976,420.954,383.475,420.954,396.974z"/>
</g>
<g id="Shell">
	<path fill="#C5A981" d="M256.374,692.867c0,0,28.916-19.277,33.735-49.397c0,0,84.337-249.397,133.735-316.867
		c0,0,65.625-95.747,101.315-117.472c2.079-1.266,4.057-2.28,5.914-3.01c33.735-13.253,79.518-26.506,108.434-4.819
		c0,0,38.555,25.301,61.446,86.747c0,0,24.097,78.312,22.892,149.397c0,0,0.001,38.555-13.253,51.808
		c0,0-436.145,201.205-460.241,210.844S237.097,700.096,256.374,692.867z"/>
</g>
</svg>
