<?xml version="1.0" encoding="utf-8"?>
<!-- Generator: Adobe Illustrator 16.0.0, SVG Export Plug-In . SVG Version: 6.00 Build 0)  -->
<!DOCTYPE svg PUBLIC "-//W3C//DTD SVG 1.1//EN" "http://www.w3.org/Graphics/SVG/1.1/DTD/svg11.dtd">
<svg version="1.1" xmlns="http://www.w3.org/2000/svg" xmlns:xlink="http://www.w3.org/1999/xlink" x="0px" y="0px" width="864px"
	 height="864px" viewBox="0 0 864 864" enable-background="new 0 0 864 864" xml:space="preserve">
<g id="Layer_2">
	<rect x="-15.916" y="-10.747" fill="#7D2C2D" width="889.157" height="885.542"/>
</g>
<g id="Layer_1" display="none">
	
		<image display="inline" overflow="visible" width="630" height="422" xlink:href="9A769261.jpg"  transform="matrix(1 0 0 1 117 221)">
	</image>
</g>
<g id="Base">
	<path fill="#76797C" d="M633.097,656.691l103.12-83.61c0,0-274.319-5.176-298.207-3.582l-26.277,60.12
		C411.732,629.619,482.604,639.97,633.097,656.691z"/>
	<path fill="#76797C" d="M741.786,469.57c0,0-54.544-88.389-75.246-101.926l-116.256,25.481l-12.743,93.964L741.786,469.57z"/>
	<polygon fill="#808389" points="736.612,573.88 438.01,569.898 453.936,491.863 742.186,469.568 	"/>
	<path fill="#9C9FA4" d="M443.785,355.701c0,0,0,28.068,16.722,41.207c0,0-44.79,34.041-42.401,67.484
		c0,0-80.025-62.706-83.012-68.081l0.597-53.749l9.556-23.291C345.247,319.271,436.021,349.131,443.785,355.701z"/>
	<path fill="#9C9FA4" d="M528.588,518.737c0,0,33.441-29.263,37.622-49.567c0,0,7.167-16.724,4.778-23.89
		c0,0,49.569,48.972,55.541,55.541l9.556,17.319l-18.514,22.096C617.571,540.236,529.186,521.126,528.588,518.737z"/>
	<circle fill="#9C9FA4" cx="476.026" cy="439.905" r="96.747"/>
	<polygon fill="#989A9E" points="617.969,540.037 600.452,539.242 521.621,520.529 530.777,519.732 	"/>
	<polygon fill="#989A9E" points="417.31,464.392 393.421,466.383 328.524,414.227 333.701,395.116 	"/>
	<path fill="#76797C" d="M322.553,524.511c0,0,6.37,3.185,5.574-10.352l4.775-174.783c0,0-212.602,89.581-216.583,92.767
		l41.406,103.516L322.553,524.511z"/>
	<path fill="#5D6069" d="M326.137,524.709c0,0,5.374,1.195,5.971-5.374l4.778-176.176l-5.375-2.389
		C331.511,340.771,329.719,500.821,326.137,524.709z"/>
	<path fill="#808389" d="M332.108,339.775l43.795-136.163L150.558,346.146l-34.242,86.794
		C116.316,432.939,332.108,342.165,332.108,339.775z"/>
	<path fill="#5D6069" d="M331.511,341.368l45.388-139.148l4.776,8.957l-44.791,132.581
		C336.884,343.756,331.511,344.354,331.511,341.368z"/>
	<path fill="#76797C" d="M150.333,346.333c0,0,111.901-70.658,115.485-83.199l101.524-56.734l57.929-29.86
		C425.271,176.54,152.723,346.93,150.333,346.333z"/>
	<path fill="#5D6069" d="M375.106,206.997l50.165-30.457c0,0,3.583,2.986,1.194,5.375l-44.79,29.86L375.106,206.997z"/>
</g>
<g id="Base__x2B_">
	<polygon fill="#9C9FA4" points="411.735,628.822 411.337,632.008 633.099,658.683 633.099,656.691 	"/>
	<path fill="#55575C" d="M633.099,656.691v1.991c0,0,101.524-80.025,105.108-84.803l-1.991-1.194
		C736.216,572.686,642.256,647.933,633.099,656.691z"/>
	<polygon fill="#55575C" points="736.216,572.686 741.79,469.966 742.984,475.143 738.207,573.88 	"/>
</g>
<g id="Layer_11">
	<path fill="#A3A4A7" d="M403.175,503.808c0,0,64.498-16.125,106.9,26.276C510.075,530.084,453.34,558.153,403.175,503.808z"/>
</g>
<g id="Layer_12">
	<path fill="#AFAEAF" d="M416.313,511.571c0,0,13.736,15.527,21.5,12.541l-16.125-16.125h7.166c0,0,13.139,15.527,16.723,16.125
		c0,0,5.972,6.569,4.18-14.333l8.361,2.389c0,0-1.194,12.541,0,14.931c0,0,13.139,2.389,22.693-6.569c0,0,6.569,0.597,6.569,4.18
		c0,0-13.139,6.569-17.916,7.167c0,0,20.454,0.597,27.173-1.344c0,0-1.194,4.181-3.583,4.479c0,0-15.378,0.597-20.902,1.045
		c0,0-35.385,5.523-59.422-23.59C412.73,512.467,414.373,510.525,416.313,511.571z"/>
</g>
<g id="Sixth_Coat">
	<path opacity="0.1" fill="#FFFFFF" d="M461.9,396.311c0,0-22.296-28.666-18.314-43.795c0,0,10.352-16.722,61.313-4.777
		c0,0,20.702,16.721,7.166,23.091c0,0-17.517,4.777-25.479,31.055C486.586,401.884,462.697,401.088,461.9,396.311z"/>
</g>
<g id="Second_coat">
	<polygon fill="#252527" points="639.071,471.559 613.988,390.338 658.182,379.589 722.68,464.392 	"/>
	<polygon fill="#252527" points="710.735,576.666 628.321,645.941 578.156,642.358 627.127,575.472 	"/>
	<polygon fill="#252527" points="556.656,637.581 422.883,623.248 445.577,571.889 596.072,575.472 	"/>
	<path fill="#252527" d="M572.184,447.67c4.778-20.305-7.166-45.387-7.166-45.387l28.666-7.167l14.333,81.22L572.184,447.67z"/>
	<polygon fill="#252527" points="315.386,510.974 320.164,355.701 250.888,384.366 273.582,513.362 	"/>
	<polygon fill="#252527" points="225.806,392.728 256.86,514.557 155.335,524.112 121.892,436.921 	"/>
	<polygon fill="#252527" points="327.33,324.646 360.773,221.927 285.526,269.703 255.666,356.895 	"/>
	<polygon fill="#252527" points="223.417,371.228 125.475,417.81 149.363,354.506 248.499,291.203 	"/>
</g>
<g id="Layer_10">
	<path fill="#55575C" d="M402.578,503.808c0,0,11.944-13.736,49.567-7.167c0,0,58.526,12.541,58.526,34.638
		c0,0-19.708-23.291-58.526-29.263C452.146,502.016,421.688,498.433,402.578,503.808z"/>
</g>
<g id="Third_Coat">
	<polygon fill="#252527" points="422.883,378.395 414.522,364.062 355.996,340.173 350.024,344.951 346.441,366.45 403.772,402.283 
			"/>
	<polygon fill="#252527" points="574.573,499.029 586.517,478.725 581.739,465.586 604.831,487.086 616.774,503.012 
		605.229,512.965 	"/>
</g>
<g id="Fourth_Coat">
	<path opacity="0.2" fill="#6A6569" d="M416.015,463.197c0,0,3.285-28.665,43.895-66.887l-123.023-56.535l-2.389,54.146
		L416.015,463.197z"/>
	<path opacity="0.2" fill="#6A6569" d="M568.601,460.411c-3.186-4.38,67.684,58.924,67.684,58.924L619.96,539.64l-88.386-20.305
		C531.574,519.335,571.786,464.791,568.601,460.411z"/>
	<path opacity="0.2" fill="#6A6569" d="M460.01,396.41c0,0-36.33,31.751-44.094,66.589c0,0,29.661,26.476,66.688,24.087l25.48-9.156
		c0,0-30.955-27.771-21.399-74.353C486.685,403.577,467.176,396.41,460.01,396.41z"/>
</g>
<g id="Fifth_Coat">
	<path opacity="0.3" fill="none" stroke="#6A6569" stroke-miterlimit="10" d="M444.681,354.805
		c-4.479,19.409,17.021,42.103,17.021,42.103c-4.777,0.299-10.152,12.542-10.152,12.542c-31.055,17.617-32.847,54.644-32.847,54.644
		"/>
	<path fill="#989A9E" d="M461.701,396.908"/>
</g>
<g id="Front_Lense">
	<path fill="#55575C" d="M571.838,421.316c-6.582-32.834-31.105-55.674-54.77-51.015c-23.665,4.659-37.516,35.055-30.934,67.892
		c6.584,32.834,31.105,55.675,54.77,51.015C564.569,484.548,578.42,454.153,571.838,421.316z M540.882,481.882
		c-21.224,4.181-43.219-16.306-49.122-45.756c-5.905-29.45,6.52-56.713,27.744-60.892c21.225-4.179,43.22,16.308,49.121,45.757
		C574.529,450.443,562.106,477.704,540.882,481.882z"/>
	<path fill="#DBE2EC" d="M520.852,415.72"/>
	<path opacity="0.3" d="M571.838,420.719c-6.582-32.834-31.105-55.675-54.77-51.015c-23.665,4.659-37.516,35.055-30.934,67.891
		c6.584,32.834,31.105,55.675,54.77,51.016C564.569,483.95,578.42,453.556,571.838,420.719z"/>
	<polyline fill="#36353B" points="531.697,406.463 509.703,377.498 508.498,380.186 530.191,408.553 	"/>
	<polyline fill="#55575C" points="533.506,406.165 512.716,377.399 510.105,378.594 532,407.06 	"/>
	<polygon fill="#36353B" points="551.283,418.009 565.946,407.657 566.58,408.718 551.684,419.801 	"/>
	<polyline fill="#36353B" points="544.051,407.26 548.236,381.823 546.237,380.032 542.445,407.26 	"/>
	<polygon fill="#55575C" points="566.26,408.455 566.349,410.444 552.288,420.199 551.633,419.017 	"/>
	<polyline fill="#55575C" points="523.563,418.407 491.225,405.866 490.621,408.653 523.966,419.999 	"/>
	<polyline fill="#55575C" points="523.563,437.518 495.442,451.054 496.648,453.842 524.97,439.707 	"/>
	<polygon fill="#36353B" points="523.563,437.518 495.442,451.254 494.84,449.859 523.563,435.727 	"/>
	<polygon fill="#36353B" points="533.261,448.813 518.264,478.795 516.274,477.751 530.671,447.559 	"/>
	<polygon fill="#55575C" points="534.857,449.445 520.266,479.232 517.411,479.228 532.814,449.053 	"/>
	<polygon fill="#36353B" points="523.362,420.398 491.022,410.246 491.225,408.653 523.765,419.403 	"/>
	<polygon fill="#36353B" points="544.218,449.347 554.882,475.338 553.877,477.062 542,449.413 	"/>
	<polygon fill="#55575C" points="544.671,448.089 555.98,474.403 555.647,476.649 543.771,448.999 	"/>
	<polygon fill="#55575C" points="552.488,435.129 568.156,449.661 568.558,453.643 552.488,437.917 	"/>
	<path fill="#36353B" d="M567.353,454.239l-15.667-15.527l0.401-1.592l15.869,15.13C567.956,452.25,569.159,453.841,567.353,454.239
		z"/>
	<polygon fill="#55575C" points="544.854,409.449 549.332,384.605 548.068,381.978 543.85,407.657 	"/>
	<path fill="#55575C" d="M544.116,405.755h-12.183l-8.614,13.009v18.397l8.614,13.009h12.183l8.614-13.009v-18.397L544.116,405.755z
		 M551.546,436.419l-7.921,11.959h-11.199l-7.92-11.959v-16.913l7.92-11.959h11.199l7.921,11.959V436.419z"/>
</g>
<g id="Guns_2">
	<path fill="#55575C" d="M532.221,517.742c0,0-11.715,3.583-7.192-13.935c0,0,1.026,0,6.575-1.792
		C533.959,501.255,534.482,516.548,532.221,517.742z"/>
	<path fill="#343435" d="M538.789,509.63c0,0-4.744-0.149-12.427-0.149c0,0,0.564,3.882,1.018,4.479c0,0,10.279,0.597,11.975,0.597
		C539.354,514.557,540.709,511.422,538.789,509.63z"/>
	<path fill="#AFAEAF" d="M525.645,496.441c0,0-2.928,4.33-6.088,8.734s-6.551,8.883-7.476,9.182c0,0-2.057,5.772,2.671,5.972
		c0,0,15.463-0.099,17.313-2.487C532.065,517.842,525.028,516.348,525.645,496.441z"/>
	<path fill="#262626" d="M539.354,514.557c0,0,1.769-2.662-0.452-4.852C538.902,509.705,537.772,512.019,539.354,514.557z"/>
</g>
<g id="Guns">
	<path fill="#55575C" d="M495.743,498.632c0,0-11.347,3.583-6.967-13.936c0,0,0.919-0.373,6.294-2.164
		C497.352,481.771,497.934,497.438,495.743,498.632z"/>
	<path fill="#343435" d="M502.688,490.52c0,0-4.818-0.149-12.619-0.149c0,0,0.574,3.882,1.032,4.479c0,0,10.44,0.597,12.161,0.597
		C503.262,495.446,504.64,492.312,502.688,490.52z"/>
	<path fill="#AFAEAF" d="M489.373,477.331c0,0-2.837,4.329-5.897,8.733c-3.061,4.405-6.345,8.884-7.241,9.183
		c0,0-1.992,5.772,2.588,5.972c0,0,14.979-0.099,16.771-2.487C495.593,498.731,488.776,497.237,489.373,477.331z"/>
	<path fill="#262626" d="M503.262,495.446c0,0,1.798-2.663-0.458-4.853C502.804,490.594,501.655,492.908,503.262,495.446z"/>
</g>
<g id="Layer_16">
	<path opacity="0.05" d="M489.322,477.381l0.148,7.204c0,0-4.366,2.725-6.531,2.239
		C482.939,486.824,488.389,478.948,489.322,477.381z"/>
</g>
</svg>
