<?xml version="1.0" encoding="utf-8"?>
<!-- Generator: Adobe Illustrator 16.0.0, SVG Export Plug-In . SVG Version: 6.00 Build 0)  -->
<!DOCTYPE svg PUBLIC "-//W3C//DTD SVG 1.1//EN" "http://www.w3.org/Graphics/SVG/1.1/DTD/svg11.dtd">
<svg version="1.1" xmlns="http://www.w3.org/2000/svg" xmlns:xlink="http://www.w3.org/1999/xlink" x="0px" y="0px" width="864px"
	 height="864px" viewBox="0 0 864 864" enable-background="new 0 0 864 864" xml:space="preserve">
<g id="Layer_3">
	<rect x="-25.012" y="-10.009" fill="#292838" width="914" height="885.405"/>
</g>
<g id="Layer_8">
	<g>
		<circle fill="#FFFFFF" cx="169.601" cy="72.109" r="4.084"/>
		<circle opacity="0.05" fill="#FFFFFF" cx="169.6" cy="72.109" r="10.938"/>
		<circle opacity="0.05" fill="#FFFFFF" cx="169.6" cy="72.109" r="8.602"/>
	</g>
	<g>
		<circle fill="#FFFFFF" cx="772.968" cy="102.108" r="4.084"/>
		<circle opacity="0.05" fill="#FFFFFF" cx="772.969" cy="102.108" r="10.938"/>
		<circle opacity="0.05" fill="#FFFFFF" cx="772.968" cy="102.108" r="8.602"/>
	</g>
	<g>
		<circle fill="#FFFFFF" cx="66.106" cy="819.072" r="4.084"/>
		<circle opacity="0.05" fill="#FFFFFF" cx="66.106" cy="819.072" r="10.938"/>
		<circle opacity="0.05" fill="#FFFFFF" cx="66.106" cy="819.072" r="8.602"/>
	</g>
	<g>
		<circle fill="#FFFFFF" cx="281.711" cy="804.006" r="4.084"/>
		<circle opacity="0.05" fill="#FFFFFF" cx="281.712" cy="804.006" r="10.938"/>
		<circle opacity="0.05" fill="#FFFFFF" cx="281.712" cy="804.006" r="8.602"/>
	</g>
	<g>
		<circle fill="#FFFFFF" cx="732.073" cy="826.571" r="4.084"/>
		<circle opacity="0.05" fill="#FFFFFF" cx="732.072" cy="826.571" r="10.938"/>
		<circle opacity="0.05" fill="#FFFFFF" cx="732.073" cy="826.571" r="8.602"/>
	</g>
	<g>
		<circle fill="#FFFFFF" cx="789.069" cy="235.601" r="4.085"/>
		<circle opacity="0.05" fill="#FFFFFF" cx="789.07" cy="235.601" r="10.938"/>
		<circle opacity="0.05" fill="#FFFFFF" cx="789.069" cy="235.601" r="8.603"/>
	</g>
	<g>
		<circle fill="#FFFFFF" cx="492.085" cy="802.574" r="4.084"/>
		<circle opacity="0.05" fill="#FFFFFF" cx="492.085" cy="802.574" r="10.938"/>
		<circle opacity="0.05" fill="#FFFFFF" cx="492.084" cy="802.574" r="8.602"/>
	</g>
	<g>
		<circle fill="#FFFFFF" cx="55.606" cy="415.991" r="4.084"/>
		<circle opacity="0.05" fill="#FFFFFF" cx="55.607" cy="415.991" r="10.938"/>
		<circle opacity="0.05" fill="#FFFFFF" cx="55.606" cy="415.991" r="8.602"/>
	</g>
	<g>
		<circle fill="#FFFFFF" cx="790.569" cy="711.476" r="4.084"/>
		<circle opacity="0.05" fill="#FFFFFF" cx="790.569" cy="711.476" r="10.938"/>
		<circle opacity="0.05" fill="#FFFFFF" cx="790.569" cy="711.476" r="8.602"/>
	</g>
	<g>
		<circle fill="#FFFFFF" cx="619.579" cy="90.11" r="4.084"/>
		<circle opacity="0.05" fill="#FFFFFF" cx="619.578" cy="90.11" r="10.938"/>
		<circle opacity="0.05" fill="#FFFFFF" cx="619.578" cy="90.11" r="8.602"/>
	</g>
	<g>
		<circle fill="#FFFFFF" cx="102.104" cy="201.104" r="4.084"/>
		<circle opacity="0.05" fill="#FFFFFF" cx="102.105" cy="201.104" r="10.938"/>
		<circle opacity="0.05" fill="#FFFFFF" cx="102.104" cy="201.104" r="8.602"/>
	</g>
	<g>
		<circle fill="#FFFFFF" cx="812.67" cy="556.586" r="4.085"/>
		<circle opacity="0.05" fill="#FFFFFF" cx="812.67" cy="556.586" r="10.937"/>
		<circle opacity="0.05" fill="#FFFFFF" cx="812.67" cy="556.586" r="8.602"/>
	</g>
	<g>
		<circle fill="#FFFFFF" cx="808.569" cy="393.094" r="4.085"/>
		<circle opacity="0.05" fill="#FFFFFF" cx="808.57" cy="393.094" r="10.938"/>
		<circle opacity="0.05" fill="#FFFFFF" cx="808.569" cy="393.094" r="8.603"/>
	</g>
	<g>
		<circle fill="#FFFFFF" cx="376.988" cy="55.61" r="4.084"/>
		<circle opacity="0.05" fill="#FFFFFF" cx="376.988" cy="55.61" r="10.938"/>
		<circle opacity="0.05" fill="#FFFFFF" cx="376.988" cy="55.61" r="8.602"/>
	</g>
	<g>
		<circle fill="#FFFFFF" cx="108.552" cy="618.732" r="4.084"/>
		<circle opacity="0.05" fill="#FFFFFF" cx="108.552" cy="618.732" r="10.938"/>
		<circle opacity="0.05" fill="#FFFFFF" cx="108.552" cy="618.732" r="8.602"/>
	</g>
</g>
<g id="Layer_2">
	<circle opacity="0.1" fill="#F3E7DB" cx="446.966" cy="429.09" r="308"/>
	<circle fill="#F3E7DB" cx="446.966" cy="429.09" r="302"/>
	<path opacity="0.5" fill="#C8BBB3" d="M524.966,667.09c-166.79,0-302-135.21-302-302c0-75.895,28.003-145.244,74.23-198.297
		c-90.944,52.04-152.23,150.01-152.23,262.297c0,166.79,135.21,302,302,302c90.896,0,172.405-40.162,227.771-103.703
		C630.594,652.646,579.468,667.09,524.966,667.09z"/>
	<circle opacity="0.8" fill="#D3CCC5" cx="446.46" cy="428.085" r="302"/>
</g>
<g id="Layer_4">
	<path opacity="0.01" d="M433.39,217.272c0,0,30.51-17.099,57.854,11.461c0,0-2.178,22.898,33.464,39.934
		c0,0,13.218-10.58,25.629,13.659c0,0,33.782,21.78,51.234,6.183c0,0,75.633-11.723,87.716,20.103
		c12.083,31.825,2.045,7.313,2.045,7.313s2.663,96.322-51.775,104.096c0,0-53.738,24.301-50.994,48.143
		c0,0-64.107,78.797-193.101,87.797c0,0-107.995-34.498-106.495-79.496c0,0,35.998-76.496,95.995-70.497
		c0,0,31.499-68.997,9.699-96.671c-14.277-18.125-3.06-5.687-3.06-5.687s-8.89-56.351,10.434-66.123
		C402.034,237.488,402.96,209.479,433.39,217.272z"/>
	<path opacity="0.01" d="M705.158,503.271c0,0,4.471,19.405-10.243,32.458c0,0-9.568-3.529-20.136,15.48
		c0,0,3.291,8.721-8.196,13.529c0,0-12.42,17.462-7.382,29.136c0,0-3.058,16.718-17.753,20.584c-14.694,3.868,1.5-3,1.5-3
		s-45.09,23.843-43.368-8.535c0,0-5.394-33.605-15.819-34.371c0,0-7.791-25.491-3.81-35.09c0,0,13.56-32.663,8.999-32.998
		c0,0,41.534-16.174,41.998-22.499c0,0,29.824-12.577,38.533-6.284c8.71,6.292,2.709-1.216,2.709-1.216s24.863,0.413,27.244,12.6
		C699.435,483.065,694.836,501.099,705.158,503.271z"/>
</g>
<g id="Layer_1">
	<circle fill="#847F7E" cx="261.736" cy="332.723" r="55.161"/>
	<circle fill="#BAB1AB" cx="265" cy="336" r="54"/>
	<circle fill="#847F7E" cx="362.639" cy="477.639" r="21.639"/>
	<circle fill="#A49F9C" cx="364.082" cy="480.524" r="19.476"/>
	<circle fill="#847F7E" cx="535.557" cy="189.115" r="13.639"/>
	<circle fill="#BAB1AB" cx="536.467" cy="190.933" r="12.275"/>
	<circle fill="#847F7E" cx="644.09" cy="384.182" r="13.639"/>
	<circle fill="#A49F9C" cx="645" cy="386" r="12.275"/>
	<circle fill="#938E8C" cx="542.09" cy="636.182" r="13.639"/>
	<circle fill="#BAB1AB" cx="543" cy="638" r="12.275"/>
	<path opacity="0.1" d="M203.936,331.067c-0.058-1.373-0.065-2.757-0.018-4.153c1.004-29.806,25.981-53.155,55.788-52.151
		c1.392,0.047,2.763,0.165,4.125,0.314l3.676-3.436c-3.557-0.87-7.25-1.408-11.054-1.536c-29.807-1.004-54.784,22.345-55.788,52.151
		c-0.128,3.806,0.153,7.53,0.782,11.138L203.936,331.067z"/>
	<path opacity="0.15" d="M320.41,317.314c0.512,1.388,0.973,2.806,1.378,4.254c8.658,30.912-10.748,63.373-43.342,72.502
		c-1.522,0.425-3.045,0.771-4.568,1.083l-2.855,4.777c4.135-0.32,8.308-1.027,12.469-2.192c32.596-9.129,52.001-41.59,43.343-72.502
		c-1.105-3.947-2.628-7.67-4.488-11.157L320.41,317.314z"/>
	<path opacity="0.15" d="M401.173,599.992c0.186,0.952,0.337,1.919,0.452,2.899c2.446,20.923-12.534,39.868-33.457,42.314
		c-0.977,0.113-1.947,0.177-2.914,0.216l-2.205,2.787c2.576,0.232,5.212,0.218,7.883-0.094
		c20.924-2.446,35.903-21.391,33.457-42.315c-0.313-2.671-0.902-5.243-1.722-7.696L401.173,599.992z"/>
	<path opacity="0.15" d="M667.383,521.349c0.412,0.878,0.794,1.778,1.145,2.701c7.474,19.695-2.435,41.721-22.13,49.195
		c-0.921,0.348-1.846,0.646-2.773,0.919l-1.459,3.241c2.555-0.402,5.107-1.06,7.622-2.013c19.696-7.475,29.604-29.499,22.13-49.196
		c-0.954-2.514-2.153-4.865-3.547-7.044L667.383,521.349z"/>
	<path opacity="0.15" d="M547.389,398.358c0.412,0.878,0.794,1.778,1.145,2.701c7.474,19.695-2.435,41.721-22.13,49.195
		c-0.921,0.348-1.846,0.646-2.773,0.919l-1.459,3.241c2.555-0.402,5.107-1.06,7.622-2.013c19.696-7.475,29.604-29.499,22.13-49.196
		c-0.954-2.514-2.153-4.865-3.547-7.044L547.389,398.358z"/>
	<path opacity="0.15" d="M387.634,475.289c0.131,0.584,0.24,1.178,0.327,1.782c1.857,12.869-7.069,24.806-19.938,26.665
		c-0.602,0.086-1.199,0.14-1.794,0.18l-1.315,1.757c1.593,0.102,3.22,0.048,4.863-0.188c12.869-1.858,21.795-13.795,19.938-26.666
		c-0.238-1.642-0.644-3.221-1.191-4.72L387.634,475.289z"/>
	<path opacity="0.15" d="M660.979,378.335c0.131,0.469,0.243,0.947,0.34,1.435c2.035,10.384-4.73,20.451-15.113,22.488
		c-0.487,0.095-0.971,0.163-1.453,0.22l-0.995,1.482c1.298,0.018,2.617-0.093,3.943-0.352c10.385-2.037,17.151-12.104,15.115-22.49
		c-0.262-1.325-0.655-2.592-1.162-3.787L660.979,378.335z"/>
	<path opacity="0.15" d="M552.343,184.833c0.076,0.481,0.134,0.968,0.175,1.464c0.846,10.548-7.017,19.784-17.563,20.632
		c-0.495,0.04-0.983,0.052-1.469,0.054l-1.157,1.36c1.288,0.165,2.611,0.204,3.958,0.097c10.549-0.848,18.412-10.083,17.565-20.633
		c-0.11-1.346-0.357-2.649-0.726-3.895L552.343,184.833z"/>
	<path opacity="0.15" d="M467.54,245.349c0.278,0.594,0.537,1.203,0.774,1.827c5.052,13.316-1.646,28.208-14.963,33.261
		c-0.623,0.235-1.248,0.437-1.875,0.621l-0.986,2.191c1.727-0.272,3.452-0.716,5.153-1.36c13.316-5.054,20.016-19.945,14.962-33.263
		c-0.645-1.699-1.456-3.289-2.398-4.762L467.54,245.349z"/>
	<path opacity="0.15" d="M559.073,630.714c0.154,0.39,0.295,0.792,0.422,1.201c2.692,8.733-2.204,17.997-10.937,20.69
		c-0.408,0.127-0.816,0.23-1.227,0.323l-0.721,1.363c1.117-0.104,2.241-0.319,3.355-0.662c8.735-2.693,13.631-11.958,10.937-20.692
		c-0.343-1.115-0.799-2.166-1.342-3.147L559.073,630.714z"/>
	<path opacity="0.05" d="M626.993,389.812c-0.091-0.461-0.167-0.928-0.225-1.403c-1.221-10.124,5.996-19.32,16.12-20.541
		c0.474-0.057,0.942-0.089,1.41-0.11l1.063-1.353c-1.248-0.108-2.523-0.096-3.816,0.06c-10.124,1.221-17.34,10.418-16.119,20.542
		c0.156,1.292,0.447,2.536,0.849,3.722L626.993,389.812z"/>
	<circle fill="#847F7E" cx="444.314" cy="256.981" r="19.617"/>
	<circle fill="#A49F9C" cx="445.623" cy="259.596" r="17.656"/>
	<path opacity="0.05" d="M419.724,265.079c-0.131-0.663-0.24-1.335-0.323-2.018c-1.756-14.561,8.624-27.788,23.186-29.544
		c0.682-0.082,1.355-0.128,2.028-0.159l1.528-1.946c-1.795-0.155-3.63-0.139-5.489,0.085c-14.562,1.756-24.939,14.984-23.185,29.545
		c0.226,1.858,0.644,3.648,1.221,5.353L419.724,265.079z"/>
	<circle fill="#847F7E" cx="514.212" cy="412.685" r="31.541"/>
	<circle fill="#A49F9C" cx="516.316" cy="416.888" r="28.387"/>
	<path opacity="0.05" d="M474.675,425.705c-0.21-1.066-0.386-2.146-0.52-3.244c-2.822-23.411,13.866-44.677,37.278-47.501
		c1.095-0.132,2.179-0.207,3.261-0.255l2.457-3.129c-2.886-0.25-5.835-0.222-8.825,0.138c-23.412,2.824-40.099,24.091-37.275,47.503
		c0.361,2.988,1.034,5.865,1.962,8.606L474.675,425.705z"/>
	<circle fill="#847F7E" cx="634.212" cy="536.685" r="31.541"/>
	<circle fill="#A49F9C" cx="636.316" cy="540.889" r="28.387"/>
	<path opacity="0.05" d="M594.675,549.705c-0.21-1.066-0.386-2.146-0.52-3.244c-2.822-23.411,13.866-44.678,37.278-47.502
		c1.095-0.132,2.179-0.206,3.261-0.255l2.457-3.129c-2.886-0.249-5.835-0.222-8.825,0.138
		c-23.412,2.824-40.099,24.092-37.275,47.504c0.361,2.987,1.034,5.865,1.962,8.605L594.675,549.705z"/>
	<path opacity="0.05" d="M336.656,476.549c-0.021-0.598-0.022-1.201,0.001-1.811c0.51-12.988,11.452-23.103,24.44-22.592
		c0.606,0.023,1.204,0.076,1.797,0.145l1.61-1.488c-1.547-0.388-3.156-0.63-4.814-0.696c-12.989-0.509-23.93,9.606-24.44,22.595
		c-0.065,1.657,0.049,3.282,0.315,4.855L336.656,476.549z"/>
	<circle fill="#847F7E" cx="358.215" cy="602.193" r="38.981"/>
	<circle fill="#BAB1AB" cx="360.814" cy="607.392" r="35.083"/>
	<path opacity="0.1" d="M311.409,600.23c-0.039-1.077-0.041-2.164,0.002-3.262c0.919-23.397,20.63-41.617,44.026-40.697
		c1.092,0.043,2.168,0.138,3.238,0.261l2.901-2.681c-2.787-0.699-5.686-1.135-8.673-1.255
		c-23.398-0.916-43.107,17.306-44.026,40.702c-0.117,2.985,0.088,5.913,0.567,8.747L311.409,600.23z"/>
	<path opacity="0.05" d="M517.64,192.214c-0.036-0.485-0.056-0.975-0.056-1.471c0-10.562,8.563-19.124,19.124-19.124
		c0.493,0,0.98,0.025,1.465,0.062l1.26-1.26c-1.27-0.266-2.583-0.412-3.932-0.412c-10.563,0-19.124,8.562-19.124,19.125
		c0,1.348,0.145,2.664,0.41,3.933L517.64,192.214z"/>
	<path opacity="0.3" fill="#C8BBB3" d="M524.627,638.704c-0.034-0.455-0.053-0.914-0.053-1.378c0-9.89,8.019-17.908,17.909-17.908
		c0.462,0,0.918,0.024,1.371,0.059l1.18-1.18c-1.188-0.249-2.419-0.386-3.682-0.386c-9.891,0-17.908,8.018-17.908,17.908
		c0,1.264,0.135,2.495,0.384,3.683L524.627,638.704z"/>
</g>
<g id="Layer_5">
	<path opacity="0.2" fill="#FFFFFF" d="M557.452,147.982c0,0,191.99,64.498,190.49,296.986
		C747.942,444.968,744.942,251.477,557.452,147.982z"/>
</g>
<g id="Layer_6">
	<path opacity="0.05" d="M523.968,667.091c-47.091,0-91.662-10.783-131.385-30.007c-5.873,5.929-13.715,9.987-22.649,11.032
		c-2.671,0.311-5.307,0.326-7.883,0.094l2.205-2.787c0.967-0.039,1.937-0.104,2.914-0.217c8.414-0.983,15.863-4.639,21.607-10.014
		c-1.588-0.797-3.169-1.607-4.741-2.431c-6.298,6.014-14.824,9.714-24.219,9.714c-5.233,0-10.194-1.154-14.655-3.209
		c-15.625-5.079-26.925-19.753-26.925-37.072c0-4.832,0.886-9.456,2.493-13.726c-2.346-2.137-4.647-4.321-6.925-6.529
		c-1.985,4.632-3.182,9.694-3.391,15.03c-0.043,1.098-0.041,2.184-0.002,3.262l-1.964,1.814c-0.479-2.834-0.684-5.762-0.567-8.746
		c0.197-5.012,1.262-9.783,3.035-14.183c-53.405-53.165-87.024-126.182-88.857-207.051c-17.543-17.224-21.94-44.744-9.046-66.997
		c4.918-8.488,11.758-15.162,19.644-19.818c0.506-1.85,1.031-3.693,1.571-5.529c-17.903,8.296-30.596,26.125-31.306,47.192
		c-0.047,1.396-0.04,2.781,0.018,4.153l-2.49,2.327c-0.629-3.608-0.911-7.332-0.782-11.138
		c0.778-23.109,15.971-42.328,36.648-49.333c12.663-39.544,33.238-75.548,59.885-106.13c-90.944,52.04-152.23,150.01-152.23,262.297
		c0,166.789,135.21,302,302,302c90.896,0,172.405-40.162,227.771-103.703C629.596,652.647,578.47,667.091,523.968,667.091z"/>
</g>
<g id="Layer_7">
	<path opacity="0.1" d="M323.713,602.582c0,0,45.632,35.189,56.13,35.002C379.843,637.584,327.982,660.576,323.713,602.582z"/>
	<path opacity="0.1" d="M228.101,289.598c0,0-13.605,64.967-10.5,74.996C217.601,364.594,184.603,328.596,228.101,289.598z"/>
</g>
</svg>
