<?xml version="1.0" encoding="utf-8"?>
<!-- Generator: Adobe Illustrator 16.0.0, SVG Export Plug-In . SVG Version: 6.00 Build 0)  -->
<!DOCTYPE svg PUBLIC "-//W3C//DTD SVG 1.1//EN" "http://www.w3.org/Graphics/SVG/1.1/DTD/svg11.dtd">
<svg version="1.1" xmlns="http://www.w3.org/2000/svg" xmlns:xlink="http://www.w3.org/1999/xlink" x="0px" y="0px" width="864px"
	 height="864px" viewBox="0 0 864 864" enable-background="new 0 0 864 864" xml:space="preserve">
<g id="Layer_1">
	<image overflow="visible" width="342" height="235" xlink:href="322E0B0C.jpg"  transform="matrix(2.311 0 0 2.311 914 43.9995)">
	</image>
</g>
<g id="Layer_11">
	<rect x="-29" y="-21" fill="#394451" width="920" height="910"/>
</g>
<g id="Layer_7">
	<path fill="#1D1E1C" d="M137.989,537.009c0,0-4-59.334,90.667-119.334l2.667-22.667
		C231.322,395.008,113.322,462.343,137.989,537.009z"/>
</g>
<g id="Layer_6">
	<path fill="#2F312E" d="M223.989,416.008c0,0-128.667,88-76,154c0,0,48,79,192.667,65.667c0,0,116.667-20,160.667-50
		c0,0,28.001-14,42.001-23.333c0,0,75.333-42.667,85.333-48c0,0,39.333-17.001,71.333-36.334c0,0,42.104-31.413,39.334-38.333
		c-2.668-6.666-58.001-37.333-77.334-42.667C642.057,391.509,464.989,306.006,223.989,416.008z"/>
</g>
<g id="Layer_9">
	<path fill="#1D1E1C" d="M735.989,423.008c0,0-68.166-43.167-107-46l12,23c0,0,49,12,95.667,42.667
		C740.699,445.331,735.187,422.434,735.989,423.008z"/>
</g>
<g id="Layer_14">
	<path opacity="0.05" d="M229.989,413.008c0,0-74,26-86,84c0,0-44.989,64.992,82,40c0,0,42-70,38-84
		S229.989,413.008,229.989,413.008z"/>
	<path opacity="0.1" d="M738,448c0,0-62.011-28.992-94.011-16.992l-2-34C641.989,397.008,736,430,738,448z"/>
</g>
<g id="Layer_5">
	<path fill="#2F312E" d="M226.656,477.008c0,0,0.231-40.708,3.827-82.206c2.509-28.955,6.656-58.295,13.506-74.46c0,0,14-60,118-90
		c0,0,52.668-21.333,149.334-14c0,0,83.332,3.333,124.666,55.333c0,0,20,21.333,22,66c0,0,2,60.666,0,106v35.334
		c0,0-275.333,164.667-432,37.333L226.656,477.008z"/>
</g>
<g id="Layer_13">
	<path opacity="0.06" d="M234.654,477.008c0,0,0.231-40.708,3.827-82.206c2.509-28.955,6.656-58.295,13.506-74.46c0,0,14-60,118-90
		c0,0,36.928-14.95,105.678-15.514c-73.883-0.598-113.678,15.514-113.678,15.514c-104,30-118,90-118,90
		c-6.85,16.166-10.997,45.505-13.506,74.46c-3.596,41.498-3.827,82.206-3.827,82.206l-0.667,39.334
		c2.671,2.171,5.38,4.249,8.117,6.253L234.654,477.008z"/>
</g>
<g id="Ribbon">
	<path fill="#181918" d="M225.7,531.791l1.289-61.116c0,0,56.542,85.212,261.361,50.272c0,0,83.639-30.606,108.306-21.939
		c0,0,13.999-11.333,17.333-9.333c0,0,31.334-43.333,43.334-47.333c0,0,6.344-19.675,1.677-36.342c0,0,6.323,27.675,6.323,39.675
		c0,0,2,44-2,48c0,0-133.334,79.334-142.667,78.667c0,0-51.333,24.666-114.667,22C405.989,594.342,240.744,595.24,225.7,531.791z"/>
</g>
<g id="Layer_12">
</g>
<g id="Layer_8">
	<path fill="#181918" d="M135.739,503.258c0,0-20.25,74.5,41.583,115.751c0,0,60,49.333,172.667,37.333
		c0,0,110-13.999,190.667-61.333c0,0,133.001-63.001,153.668-79.668c0,0,51.666-44.332,53.666-54.332
		c0,0,1.001-35.001-16.666-40.334c0,0,12,21.667-15.334,41c0,0-61.334,38-63.334,38.667c0,0-92,46.667-119.333,66
		c0,0-77.333,37.333-95.333,42.667c0,0-74.667,32-155.333,24c0,0-98-5.584-136.667-76.251
		C145.989,556.758,132.489,525.008,135.739,503.258z"/>
</g>
<g id="Layer_3">
	<path fill="#1D1E1C" d="M485.323,517.008c0,0,2.667,47.334,2,53.334c0,0,5.333,9.004,5.333,15.671c0,0,27.333-11.005,27.333-13.005
		s0,2,0,2s70.667-43.333,78.667-45.333c0,0,60.667-34,68.667-36c0,0,1.333-47.333-10.667-47.333c0,0-41.333,28-44,42
		c0,0-13.334,5.332-16.667,8.666C595.989,497.008,517.99,501.674,485.323,517.008z"/>
</g>
<g id="Layer_4">
	<path fill="#181918" d="M595.323,498.342c0,0,7,21.666,2.333,32.333c0,0,24.334-8.334,23.667-11.667c0,0-3.333-28.666-8-31.333
		C613.323,487.675,594.657,493.676,595.323,498.342z"/>
	<path fill="#181918" d="M120.656,391.675"/>
</g>
</svg>
