<?xml version="1.0" encoding="utf-8"?>
<!-- Generator: Adobe Illustrator 16.0.0, SVG Export Plug-In . SVG Version: 6.00 Build 0)  -->
<!DOCTYPE svg PUBLIC "-//W3C//DTD SVG 1.1//EN" "http://www.w3.org/Graphics/SVG/1.1/DTD/svg11.dtd">
<svg version="1.1" xmlns="http://www.w3.org/2000/svg" xmlns:xlink="http://www.w3.org/1999/xlink" x="0px" y="0px" width="504px"
	 height="504px" viewBox="0 0 504 504" enable-background="new 0 0 504 504" xml:space="preserve">
<g id="Layer_6">
	<rect x="-10.833" y="-8.889" fill="#509B99" width="528" height="523"/>
</g>
<g id="Gear" display="none">
	<g display="inline">
		<path fill="#5E5A5A" d="M408.208,316.93l29.065-8.223c1.543-9.078,2.357-18.403,2.357-27.921c0-2.086-0.052-4.16-0.129-6.227
			l-27.721-11.971c0.779,5.955,1.187,12.029,1.187,18.197C412.967,293.291,411.305,305.405,408.208,316.93z"/>
		<path fill="#5E5A5A" d="M139.942,244.675l-28.947,8.189c-1.543,9.077-2.357,18.403-2.357,27.921c0,2.086,0.052,4.159,0.128,6.226
			l27.604,11.921c-0.775-5.939-1.18-11.995-1.18-18.146C135.19,268.294,136.849,256.192,139.942,244.675z"/>
		<path fill="#5E5A5A" d="M204.809,160.379l-26.284-14.691c-9.341,6.622-17.958,14.194-25.726,22.566l11.101,27.975
			C175.02,181.761,188.919,169.541,204.809,160.379z"/>
		<path fill="#5E5A5A" d="M280.36,446.155l11.949-27.671c-5.967,0.782-12.051,1.191-18.23,1.191
			c-12.477,0-24.564-1.654-36.066-4.739l8.201,28.99c9.076,1.542,18.402,2.356,27.92,2.356
			C276.219,446.283,278.293,446.231,280.36,446.155z"/>
		<path fill="#5E5A5A" d="M310.266,146.671l-8.211-29.023c-9.078-1.543-18.404-2.357-27.922-2.357c-2.086,0-4.158,0.052-6.225,0.129
			l-11.943,27.654c5.93-0.772,11.974-1.175,18.113-1.175C286.598,141.898,298.727,143.564,310.266,146.671z"/>
		<path fill="#5E5A5A" d="M153.717,350.132l-14.682,26.265c6.623,9.34,14.195,17.957,22.567,25.725l27.985-11.105
			C175.114,379.906,162.887,366.014,153.717,350.132z"/>
		<path fill="#5E5A5A" d="M343.404,401.161l26.34,14.724c9.341-6.623,17.958-14.195,25.726-22.567l-11.138-28.069
			C373.211,379.741,359.305,391.983,343.404,401.161z"/>
		<path fill="#5E5A5A" d="M394.497,211.537l14.734-26.36c-6.622-9.341-14.195-17.958-22.567-25.726l-28.058,11.134
			C373.093,181.714,385.329,195.628,394.497,211.537z"/>
		<path d="M292.309,418.484c18.411-2.414,35.687-8.431,51.095-17.323c15.901-9.178,29.808-21.42,40.928-35.913
			c10.891-14.194,19.1-30.552,23.876-48.317c3.098-11.525,4.76-23.64,4.76-36.144c0-6.168-0.407-12.242-1.187-18.197
			c-2.407-18.393-8.409-35.654-17.284-51.053c-9.168-15.909-21.403-29.823-35.891-40.952c-14.199-10.907-30.563-19.13-48.34-23.914
			c-11.539-3.106-23.668-4.772-36.188-4.772c-6.14,0-12.184,0.402-18.113,1.175c-18.432,2.4-35.729,8.412-51.156,17.306
			c-15.89,9.161-29.789,21.382-40.909,35.85c-10.935,14.227-19.173,30.628-23.958,48.446c-3.093,11.517-4.752,23.619-4.752,36.111
			c0,6.15,0.404,12.206,1.18,18.146c2.407,18.45,8.434,35.763,17.348,51.2c9.17,15.882,21.396,29.773,35.871,40.884
			c14.223,10.918,30.615,19.144,48.424,23.92c11.502,3.085,23.59,4.739,36.066,4.739
			C280.258,419.675,286.342,419.266,292.309,418.484z M188.29,280.786c0-47.41,38.435-85.844,85.844-85.844
			c47.411,0,85.845,38.435,85.845,85.845c0,47.409-38.434,85.844-85.845,85.844C226.724,366.63,188.29,328.196,188.29,280.786z"/>
		<path fill="#5E5A5A" d="M359.978,280.787c0-47.41-38.434-85.844-85.845-85.845c-47.409,0-85.844,38.434-85.844,85.844
			s38.435,85.845,85.844,85.845C321.544,366.63,359.978,328.196,359.978,280.787z M229.689,280.787
			c0-24.546,19.898-44.444,44.444-44.444s44.444,19.899,44.444,44.444c0,24.546-19.898,44.444-44.444,44.444
			S229.689,305.333,229.689,280.787z"/>
	</g>
</g>
<g id="Layer_4" display="none">
</g>
<g id="Layer_7" display="none">
</g>
<g id="Layer_5" display="none">
</g>
<g id="Layer_8" display="none">
</g>
<g id="IceCream" display="none">
</g>
<g id="Layer_9">
	<line fill="none" stroke="#A8A56F" stroke-miterlimit="10" x1="165.998" y1="285.283" x2="264.375" y2="300.761"/>
	<ellipse opacity="0.1" cx="235.15" cy="307.133" rx="48.601" ry="37.534"/>
	<ellipse fill="#FFFFFF" cx="235.15" cy="311.289" rx="48.601" ry="37.534"/>
	<ellipse fill="#BAB7AF" cx="251.376" cy="272.488" rx="110.48" ry="25.15"/>
	<path opacity="0.05" d="M146.116,277.706c0-13.889,49.463-25.149,110.479-25.149c47.847,0,88.585,6.925,103.944,16.612
		c-5.666-12.681-52.711-22.575-109.908-22.575c-61.016,0-110.479,11.259-110.479,25.149c0,2.998,2.309,5.872,6.535,8.537
		C146.309,279.435,146.116,278.576,146.116,277.706z"/>
	<path fill="none" stroke="#FFFFFF" stroke-miterlimit="10" d="M140.896,274.285"/>
	<g>
		<ellipse fill="#D1D1D1" cx="251.376" cy="412.767" rx="43.114" ry="4.939"/>
		<ellipse fill="#D1D1D1" cx="251.376" cy="407.379" rx="43.114" ry="4.939"/>
		<rect x="209.161" y="406.929" fill="#D1D1D1" width="84.432" height="7.186"/>
	</g>
	<path fill="#FFFFFF" d="M331.063,312.74c0,0,14.882-12.592,0-25.947c0,0,8.014-16.789,8.395-21.368c0,0-2.288-19.08-10.684-23.278
		c0,0,8.396-25.947-3.435-32.816c0,0-1.526-12.973-3.434-13.355c0,0,9.921-12.974-11.83-39.685c0,0-22.513-22.895-27.855-28.238
		c0,0-9.54-14.118-0.381-18.317c0,0,12.21-11.829-1.909-22.513c0,0-14.882-4.961-38.922,24.04c0,0-30.909,28.237-36.251,52.66
		c0,0-15.263-5.725-24.803,20.224c0,0-11.829,11.447-2.289,30.145c0,0-12.974,22.514-12.211,30.146c0,0,0.763,9.538,6.105,11.447
		c0,0,5.725,3.052,0.765,11.447c0,0-9.54,10.303-1.527,25.566c0,0,6.105,12.593,3.053,16.407
		C173.849,309.305,242.917,345.939,331.063,312.74z"/>
	<path opacity="0.06" d="M231.086,315.412c0,0,52.66,14.119,66.397,0.764c0,0-55.33,0.381-71.358-42.739
		c0,0,39.685,13.738,71.74,0.764c0,0-66.397-0.764-74.792-34.342c0,0-4.198-9.159,4.198-8.015c0,0,18.696,26.711,62.961,17.936
		c0,0,13.356-14.119-9.54-22.133c0,0-50.75-12.973-50.75-28.619c0,0-4.961-16.408,13.356-13.736c0,0,7.631,12.21,23.658,10.684
		c0,0,17.553-6.488,6.487-24.04c0,0-20.987-11.066-16.026-27.855c0,0,8.394-37.778,15.645-39.304c0,0,4.961,2.67,3.434,6.868
		c0,0,6.869-14.5-2.671-16.789c0,0-39.303,17.171-67.923,75.171c0,0-29.764,0.381-22.513,35.87c0,0,0.382,12.973,8.396,16.789
		c0,0-8.396,2.291-12.211,20.605c0,0,9.54,17.555,20.224,24.041c0,0-13.738,6.486-16.79,3.816
		c-3.107-2.718-9.862,23.65,1.908,30.145C195.98,307.398,215.06,313.503,231.086,315.412z"/>
	<path fill="#FFFFFF" d="M140.896,274.285c0,0,0.038,0.345,0.121,0.991c0.108,0.132,0.214,0.252,0.322,0.379
		C141.142,275.206,140.98,274.75,140.896,274.285z"/>
	<path fill="#D1D1D1" d="M361.796,274.285c-1.979,10.889-35.325,16.866-64.867,20.041c-46.006,4.247-75.123,1.336-75.123,1.336
		l0.031,0.176c-25.641-2.09-60.779-6.38-74.842-14.691c1.771,1.35,2.869,1.841,2.869,1.841c10.779,81.738,62.89,120.64,62.89,120.64
		c-0.636-0.278-1.255-0.574-1.879-0.867c11.545,6.157,24.932,9.839,40.441,9.849v0.001c0.01,0,0.021,0,0.031,0
		c0.01,0,0.019,0,0.028,0v-0.001C346.532,412.549,361.796,274.285,361.796,274.285z"/>
	<path opacity="0.02" d="M146.995,281.146c-1.49-1.138-3.455-2.894-5.656-5.491C142.218,277.656,144.181,279.482,146.995,281.146z"
		/>
	<path opacity="0.02" d="M141.017,275.276c-0.033-0.04-0.065-0.075-0.099-0.116c0,0,8.047,98.634,69.956,127.6
		C155.104,373.021,142.334,285.542,141.017,275.276z"/>
	<path fill="#FFFFFF" d="M149.864,282.987c0,0-1.099-0.491-2.869-1.841c-2.814-1.664-4.777-3.49-5.656-5.491
		c-0.108-0.127-0.213-0.247-0.322-0.379c1.317,10.266,14.086,97.745,69.857,127.483c0.624,0.293,1.243,0.589,1.879,0.867
		C212.754,403.626,160.643,364.725,149.864,282.987z"/>
	<path opacity="0.25" d="M149.864,282.987c0,0-1.099-0.491-2.869-1.841c-2.814-1.664-4.777-3.49-5.656-5.491
		c-0.108-0.127-0.213-0.247-0.322-0.379c1.317,10.266,14.086,97.745,69.857,127.483c0.624,0.293,1.243,0.589,1.879,0.867
		C212.754,403.626,160.643,364.725,149.864,282.987z"/>
	
		<ellipse transform="matrix(0.3816 0.9243 -0.9243 0.3816 310.52 -169.1929)" fill="#E04B9C" cx="281.709" cy="147.475" rx="14.6" ry="1.668"/>
	
		<ellipse transform="matrix(-0.4295 0.9031 -0.9031 -0.4295 602.6774 27.939)" fill="#4B4BDD" cx="292.513" cy="204.346" rx="12.175" ry="1.391"/>
	
		<ellipse transform="matrix(-0.4294 0.9031 -0.9031 -0.4294 648.0466 33.2717)" fill="#54548E" cx="313.513" cy="221.346" rx="12.175" ry="1.39"/>
	
		<ellipse transform="matrix(0.3669 0.9303 -0.9303 0.3669 446.8299 -132.6085)" fill="#4DDBDB" cx="320.837" cy="261.965" rx="15.998" ry="1.829"/>
	
		<ellipse transform="matrix(0.9851 -0.172 0.172 0.9851 -40.7193 49.9379)" fill="#54A3A1" cx="267.836" cy="259.964" rx="15.998" ry="1.829"/>
	
		<ellipse transform="matrix(0.8168 0.577 -0.577 0.8168 168.1206 -111.2136)" fill="#3A6665" cx="259.155" cy="209.082" rx="12.62" ry="1.442"/>
	
		<ellipse transform="matrix(-0.5357 0.8444 -0.8444 -0.5357 493.9486 -9.7908)" fill="#E20A0A" cx="249.666" cy="130.903" rx="15.14" ry="1.731"/>
	
		<ellipse transform="matrix(0.2632 0.9647 -0.9647 0.2632 341.5754 -46.0858)" fill="#EF43BB" cx="200.959" cy="200.578" rx="13.378" ry="1.529"/>
	
		<ellipse transform="matrix(0.8142 0.5805 -0.5805 0.8142 175.0135 -96.0807)" fill="#56ED45" cx="237.634" cy="225.421" rx="15.509" ry="1.773"/>
	
		<ellipse transform="matrix(-0.4408 0.8976 -0.8976 -0.4408 470.5127 45.3324)" fill="#EAB447" cx="221.135" cy="169.231" rx="13.971" ry="1.596"/>
	
		<ellipse transform="matrix(0.7071 0.7071 -0.7071 0.7071 216.1559 -165.6393)" fill="#FCFC44" cx="308.028" cy="178.111" rx="17.501" ry="2"/>
	
		<ellipse transform="matrix(-0.7071 0.7071 -0.7071 -0.7071 560.6559 306.2414)" fill="#F9F046" cx="216.903" cy="269.236" rx="11.667" ry="2"/>
	
		<ellipse transform="matrix(-0.9584 0.2853 -0.2853 -0.9584 641.2943 477.0626)" fill="#8C852C" cx="285.903" cy="285.237" rx="11.667" ry="2"/>
	
		<ellipse transform="matrix(-0.7071 0.7071 -0.7071 -0.7071 518.7859 277.5845)" fill="#8F42BC" cx="201.903" cy="246.236" rx="11.667" ry="2"/>
</g>
</svg>
